<svg xmlns="http://www.w3.org/2000/svg" viewBox="0 0 56.63 56.63"><defs><style>.cls-1{fill:#0066ae;}.cls-2{fill:#fff;}</style></defs><title>clients_1</title><g id="Слой_2" data-name="Слой 2"><g id="Work"><circle class="cls-1" cx="28.32" cy="28.32" r="28.32"/><path class="cls-2" d="M32.27,14.43a4,4,0,1,0-4,3.94A4,4,0,0,0,32.27,14.43Z"/><path class="cls-2" d="M32.65,20.29h0l-1.13-.35a.35.35,0,0,0-.43.22l-2.37,6.5a.43.43,0,0,1-.81,0l-2.37-6.5a.33.33,0,0,0-.33-.23L24,20.29a3.5,3.5,0,0,0-2.41,3.32v6.88a.31.31,0,0,0,.06.19l2.47,3.77V44a.35.35,0,0,0,.35.35h7.71a.35.35,0,0,0,.35-.35V34.45L35,30.68a.31.31,0,0,0,.06-.19v-6.9a3.48,3.48,0,0,0-2.4-3.3Z"/><path class="cls-2" d="M29.24,20.15a.55.55,0,0,0-.38-.16H27.78a.55.55,0,0,0-.39.16.52.52,0,0,0-.07.59l.58.87-.27,2.28.53,1.42a.17.17,0,0,0,.31,0L29,23.89l-.27-2.28.58-.87A.5.5,0,0,0,29.24,20.15Z"/></g></g></svg>