<svg xmlns="http://www.w3.org/2000/svg" viewBox="0 0 56.63 56.63"><defs><style>.cls-1{fill:#0066ae;}.cls-2{fill:#fff;}</style></defs><title>clients_3</title><g id="Слой_2" data-name="Слой 2"><g id="Work"><circle class="cls-1" cx="28.32" cy="28.32" r="28.32"/><path class="cls-2" d="M28.33,37.33a2.32,2.32,0,0,0-1.82-.43,2.28,2.28,0,0,0-.87-1.46A2.24,2.24,0,0,0,23.93,35a2.07,2.07,0,0,0-.43.1,2.32,2.32,0,0,0-.82-1.19,2.28,2.28,0,0,0-2.27-.3,2.31,2.31,0,0,0-.79-1.11,2.27,2.27,0,0,0-3,.19l-2.42-.17L15.69,20.4l2.65.18h.05a.66.66,0,0,0,.58-.36l1-1.95a1.16,1.16,0,0,1,1.35-.6l1.47.41a.65.65,0,0,0,.81-.46.66.66,0,0,0-.46-.82l-1.47-.41a2.49,2.49,0,0,0-2.88,1.27L18,19.22l-2.15-.14.05-.42A2.42,2.42,0,0,0,13.81,16l-5.08-.63a.66.66,0,0,0-.16,1.32l5.08.63a1.06,1.06,0,0,1,.72.42,1.12,1.12,0,0,1,.23.81L12.85,32.79a1.1,1.1,0,0,1-1.22,1l-5.07-.63a.66.66,0,0,0-.74.57.67.67,0,0,0,.57.75l5.08.63h.3a2.4,2.4,0,0,0,2.11-1.26l1.8.13a2.38,2.38,0,0,0-.23,1.37,2.3,2.3,0,0,0,.89,1.53,2.27,2.27,0,0,0,1.38.48,1.66,1.66,0,0,0,.32,0h0v0A2.29,2.29,0,0,0,19,38.85a2.24,2.24,0,0,0,1.38.47,2,2,0,0,0,.34,0,2.34,2.34,0,0,0,.89,1.56,2.31,2.31,0,0,0,1.39.47,1.84,1.84,0,0,0,.33,0v0a2.3,2.3,0,0,0,2.27,2l.32,0a2.27,2.27,0,0,0,1.52-.89l1.36-1.82A2.33,2.33,0,0,0,28.33,37.33ZM17.86,36a1,1,0,0,1-.72-.2.94.94,0,0,1-.38-.65,1,1,0,0,1,.19-.73l.5-.67a1,1,0,0,1,.65-.38.94.94,0,0,1,.72.19A1,1,0,0,1,19,34.93l-.5.67A1,1,0,0,1,17.86,36Zm1.89,1.8a1,1,0,0,1-.19-1.38l.5-.67h0l.45-.59a1,1,0,0,1,.78-.39.92.92,0,0,1,.59.2,1,1,0,0,1,.19,1.38l-.94,1.26A1,1,0,0,1,19.75,37.79Zm2.62,2a1,1,0,0,1-.38-.65,1,1,0,0,1,.19-.74h0l.94-1.26h0l.35-.45a1,1,0,0,1,.64-.39,1,1,0,0,1,.73.2A1,1,0,0,1,25,37.88L23.74,39.6h0A1,1,0,0,1,22.37,39.79Zm5.35,0-1.36,1.81a1,1,0,0,1-1.57-1.19l1.29-1.72h0l.08-.1a1,1,0,0,1,.64-.38,1,1,0,0,1,.92,1.58Z"/><path class="cls-2" d="M50.81,33.69a.65.65,0,0,0-.73-.57L45,33.75a1.1,1.1,0,0,1-1.22-1l-.05-.43h0v-.1L42,18.5a1.1,1.1,0,0,1,1-1.23l5.08-.63a.66.66,0,0,0,.57-.74.67.67,0,0,0-.74-.58L42.83,16a2.43,2.43,0,0,0-2.12,2.48l-1.28.16-4-2.25a3.1,3.1,0,0,0-1.84-.4h0l-1.2.11a.66.66,0,0,0-.59.72.65.65,0,0,0,.72.6l1.19-.11a1.92,1.92,0,0,1,1.08.23l4.11,2.34a.67.67,0,0,0,.44.1l1.49-.18L42,28.69l.38,3.09H40a.65.65,0,0,0-.43.16l-.19.15-6-5.18a8.05,8.05,0,0,0,3.88-2.85.68.68,0,0,0-.1-.94.66.66,0,0,0-.93.1c-1.35,1.68-2.78,2.54-4.23,2.57A5.44,5.44,0,0,1,28.3,24a.62.62,0,0,0-.52-.23.64.64,0,0,0-.5.26l-1.77,2.32a3.41,3.41,0,0,1-4,1.13l-.18-.07a.41.41,0,0,1-.26-.26.44.44,0,0,1,0-.38l4.62-8a1.86,1.86,0,0,1,1.43-.92l2.73-.25a.67.67,0,0,0,.6-.72.66.66,0,0,0-.72-.6l-2.74.25a3.19,3.19,0,0,0-2.44,1.57l-4.62,8a1.79,1.79,0,0,0-.14,1.48,1.83,1.83,0,0,0,1,1.07l.19.07a4.81,4.81,0,0,0,1.7.31,4.73,4.73,0,0,0,3.77-1.88l1.32-1.73a6.45,6.45,0,0,0,3.71,1.63l8.61,7.49a.77.77,0,0,1,.08,1.08l-.34.4a1.17,1.17,0,0,1-1.65.12.24.24,0,0,0-.08-.06l-2.24-2a.65.65,0,0,0-.93.07.67.67,0,0,0,.07.94l1.82,1.58-.83,1a1.16,1.16,0,0,1-1,.4,1.14,1.14,0,0,1-.62-.28h0l-2.08-1.8a.65.65,0,0,0-.93.07.67.67,0,0,0,.07.94l1.59,1.38-.84,1a1.13,1.13,0,0,1-1,.4.66.66,0,0,0-.73.59.65.65,0,0,0,.58.73,1.37,1.37,0,0,0,.29,0,2.45,2.45,0,0,0,1.88-.87l.89-1a2.67,2.67,0,0,0,.78.22,2.48,2.48,0,0,0,2.18-.85l.89-1a2.48,2.48,0,0,0,2.95-.62l.34-.4a2.11,2.11,0,0,0-.22-3l-.54-.47h2a2.41,2.41,0,0,0,2.36,2h.3l5.08-.63A.67.67,0,0,0,50.81,33.69Z"/><path class="cls-2" d="M46.6,28.89a2,2,0,1,0,1.93,1.95A2,2,0,0,0,46.6,28.89Zm0,2.58a.63.63,0,0,1,0-1.25.63.63,0,0,1,0,1.25Z"/><path class="cls-2" d="M11.9,30.84A1.94,1.94,0,1,0,10,32.79,2,2,0,0,0,11.9,30.84Zm-2.55,0a.61.61,0,0,1,.61-.62.63.63,0,1,1-.61.62Z"/></g></g></svg>