<svg xmlns="http://www.w3.org/2000/svg" viewBox="0 0 12 9.43"><title>contact-mail-icon</title><g id="Слой_2" data-name="Слой 2"><g id="Work"><path d="M1.15,2.91l1.37.95L4.28,5.08l.28.21.37.25c.09.07.21.14.34.22a2.2,2.2,0,0,0,.39.18A1.05,1.05,0,0,0,6,6H6a1.05,1.05,0,0,0,.33-.06,2.2,2.2,0,0,0,.39-.18c.13-.08.25-.15.34-.22l.37-.25.28-.21,3.13-2.17a3.23,3.23,0,0,0,.82-.83,1.76,1.76,0,0,0,.33-1,1.05,1.05,0,0,0-.32-.76A1,1,0,0,0,10.93,0H1.07A1,1,0,0,0,.28.35,1.32,1.32,0,0,0,0,1.22a1.54,1.54,0,0,0,.37.91A3.39,3.39,0,0,0,1.15,2.91Z"/><path d="M11.33,3.62C9.87,4.61,8.75,5.38,8,5.93l-.62.44a3.44,3.44,0,0,1-.64.32A1.92,1.92,0,0,1,6,6.86H6a1.92,1.92,0,0,1-.73-.17,3.44,3.44,0,0,1-.64-.32L4,5.93C3.4,5.49,2.29,4.72.68,3.62A3.47,3.47,0,0,1,0,3V8.36a1,1,0,0,0,.31.75,1.05,1.05,0,0,0,.76.32h9.86a1.05,1.05,0,0,0,.76-.32A1,1,0,0,0,12,8.36V3A3.78,3.78,0,0,1,11.33,3.62Z"/></g></g></svg>