<svg xmlns="http://www.w3.org/2000/svg" viewBox="0 0 12 12"><title>contact-phone-icon</title><g id="Слой_2" data-name="Слой 2"><g id="Work"><path d="M6,0a6,6,0,1,0,6,6A6,6,0,0,0,6,0ZM9.17,8.75l-.48.49a1,1,0,0,1-.35.13A5.67,5.67,0,0,1,4.28,7.72,5.75,5.75,0,0,1,2.62,3.64a.93.93,0,0,1,.15-.33l.48-.48A.81.81,0,0,1,4,2.66l.1,0a1,1,0,0,1,.55.58l.24.89a.91.91,0,0,1-.2.76l-.32.32A3.39,3.39,0,0,0,6.76,7.63l.32-.32a.91.91,0,0,1,.76-.2l.89.25a.94.94,0,0,1,.58.54l0,.11A.83.83,0,0,1,9.17,8.75Z"/></g></g></svg>