<svg xmlns="http://www.w3.org/2000/svg" viewBox="0 0 197.21 41.47"><defs><style>.cls-1{fill:#b3b3b3;}.cls-2{fill:gray;}</style></defs><title>creater-logo</title><g id="Слой_2" data-name="Слой 2"><g id="Menu"><path class="cls-1" d="M1.36,2.39H2V8.05c0,.89,0,1.79-.08,2.69H2L3,8.92,7,2.39h.69v9.23H7V5.89c0-.9.05-1.74.08-2.62h0L6,5.09,2.05,11.62H1.36Z" transform="translate(0 -2.39)"/><path class="cls-1" d="M10.66,4.89h.62V7.81h3.89V4.89h.61v6.73h-.61V8.37H11.28v3.25h-.62Z" transform="translate(0 -2.39)"/><path class="cls-1" d="M18.14,8.27c0-2.25,1.44-3.54,3.08-3.54a2.79,2.79,0,0,1,2,.82L22.82,6a2.26,2.26,0,0,0-1.59-.72c-1.38,0-2.44,1.23-2.44,3s1,3,2.43,3a2.71,2.71,0,0,0,1.8-.77l.32.43a3.16,3.16,0,0,1-2.15.89C19.46,11.79,18.14,10.49,18.14,8.27Z" transform="translate(0 -2.39)"/><path class="cls-1" d="M26.69,5.43H24.28V4.89h5.45v.54H27.31v6.19h-.62Z" transform="translate(0 -2.39)"/><path class="cls-1" d="M31.73,4.89h.52l.07.85h0a3.87,3.87,0,0,1,2.28-1c1.81,0,2.69,1.35,2.69,3.43,0,2.28-1.37,3.63-3,3.63a3.46,3.46,0,0,1-2-.83v3.71h-.62Zm4.95,3.27c0-1.65-.59-2.89-2.15-2.89a3.57,3.57,0,0,0-2.18,1.11v4a3.28,3.28,0,0,0,2,.87C35.69,11.24,36.68,10,36.68,8.16Z" transform="translate(0 -2.39)"/><path class="cls-1" d="M38.72,14.54l.14-.53a1.79,1.79,0,0,0,.55.11c.82,0,1.38-.76,1.72-1.79l.19-.58L38.56,4.89h.67l1.62,4.23c.22.57.49,1.29.73,1.89h.06c.21-.6.43-1.32.62-1.89l1.43-4.23h.63l-2.65,7.58c-.38,1.12-1.06,2.21-2.27,2.21A1.62,1.62,0,0,1,38.72,14.54Z" transform="translate(0 -2.39)"/><path class="cls-1" d="M46.13,4.89h.73l1.61,3.67c.22.57.46,1.15.67,1.72h.06c.24-.57.5-1.15.7-1.72l1.58-3.67h.72v6.73h-.59V7.81c0-.52,0-1.3.08-2h-.06c-.19.49-.4,1-.6,1.41L49.46,11H48.9l-1.6-3.7c-.19-.46-.4-.92-.6-1.41h-.05c0,.66.07,1.44.07,2v3.81h-.59Z" transform="translate(0 -2.39)"/><path class="cls-1" d="M54.57,8.27c0-2.19,1.43-3.54,2.93-3.54s2.58,1.13,2.58,3.11a2.81,2.81,0,0,1,0,.5H55.21c0,1.7,1,2.91,2.53,2.91a3.08,3.08,0,0,0,1.81-.59l.25.47a3.68,3.68,0,0,1-2.12.66C56,11.79,54.57,10.47,54.57,8.27Zm4.92-.44c0-1.71-.77-2.57-2-2.57A2.51,2.51,0,0,0,55.2,7.83Z" transform="translate(0 -2.39)"/><path class="cls-1" d="M62.25,4.89h.62V7.81h3.88V4.89h.62v6.73h-.62V8.37H62.87v3.25h-.62Z" transform="translate(0 -2.39)"/><path class="cls-1" d="M71.78,5.43H69.37V4.89h5.45v.54H72.4v6.19h-.62Z" transform="translate(0 -2.39)"/><path class="cls-1" d="M76.82,4.89h.62V7.58h1.22c1.58,0,2.55.66,2.55,2s-1,2-2.55,2H76.82Zm1.7,6.19c1.39,0,2.06-.46,2.06-1.5S79.91,8.1,78.52,8.1H77.44v3Zm4-6.19h.62v6.73h-.62Z" transform="translate(0 -2.39)"/><path class="cls-1" d="M89.23,4.89h.61V8.25c0,.74,0,1.65-.07,2.54h0c.27-.42.69-1,1-1.45l3-4.45h.59v6.73h-.61V8.26c0-.74,0-1.65.07-2.54h0l-1,1.46-3,4.44h-.59Z" transform="translate(0 -2.39)"/><path class="cls-1" d="M97.33,4.89H98V7.81h3.89V4.89h.62v6.73h-.62V8.37H98v3.25h-.62Z" transform="translate(0 -2.39)"/><path class="cls-1" d="M106.87,5.43h-2.42V4.89h5.45v.54h-2.41v6.19h-.62Z" transform="translate(0 -2.39)"/><path class="cls-1" d="M111.19,8.27c0-2.19,1.42-3.54,2.93-3.54s2.57,1.13,2.57,3.11a2.8,2.8,0,0,1,0,.5h-4.84c0,1.7,1,2.91,2.53,2.91a3.06,3.06,0,0,0,1.81-.59l.26.47a3.71,3.71,0,0,1-2.13.66C112.58,11.79,111.19,10.47,111.19,8.27Zm4.92-.44c0-1.71-.78-2.57-2-2.57a2.51,2.51,0,0,0-2.3,2.57Z" transform="translate(0 -2.39)"/><path class="cls-1" d="M118.86,4.89h.53l.06.85h0a3.87,3.87,0,0,1,2.29-1c1.8,0,2.69,1.35,2.69,3.43,0,2.28-1.38,3.63-3,3.63a3.49,3.49,0,0,1-2-.83v3.71h-.62Zm5,3.27c0-1.65-.59-2.89-2.14-2.89a3.57,3.57,0,0,0-2.19,1.11v4a3.28,3.28,0,0,0,2,.87C122.83,11.24,123.81,10,123.81,8.16Z" transform="translate(0 -2.39)"/><path class="cls-1" d="M126.83,4.89h.62V7.81h3.89V4.89H132v6.73h-.61V8.37h-3.89v3.25h-.62Z" transform="translate(0 -2.39)"/><path class="cls-1" d="M134.31,8.27c0-2.19,1.43-3.54,2.94-3.54s2.57,1.13,2.57,3.11a2.81,2.81,0,0,1,0,.5H135c0,1.7,1,2.91,2.53,2.91a3.08,3.08,0,0,0,1.81-.59l.25.47a3.68,3.68,0,0,1-2.12.66C135.7,11.79,134.31,10.47,134.31,8.27Zm4.93-.44c0-1.71-.78-2.57-2-2.57a2.51,2.51,0,0,0-2.31,2.57Z" transform="translate(0 -2.39)"/><path class="cls-1" d="M143.34,5.43h-2.42V4.89h5.45v.54H144v6.19h-.62Z" transform="translate(0 -2.39)"/><path class="cls-1" d="M151.52,4.89h5v6.73h-.62V5.43h-3.75v6.19h-.62Z" transform="translate(0 -2.39)"/><path class="cls-1" d="M159.45,4.89H160l.07.85h0a3.87,3.87,0,0,1,2.28-1c1.81,0,2.69,1.35,2.69,3.43,0,2.28-1.37,3.63-3,3.63a3.46,3.46,0,0,1-2-.83v3.71h-.62Zm4.94,3.27c0-1.65-.58-2.89-2.14-2.89a3.57,3.57,0,0,0-2.18,1.11v4a3.28,3.28,0,0,0,2,.87C163.41,11.24,164.39,10,164.39,8.16Z" transform="translate(0 -2.39)"/><path class="cls-1" d="M166.85,8.27c0-2.25,1.4-3.54,3-3.54s3,1.29,3,3.54-1.41,3.52-3,3.52S166.85,10.49,166.85,8.27Zm5.39,0c0-1.77-1-3-2.37-3s-2.37,1.23-2.37,3,1,3,2.37,3S172.24,10,172.24,8.27Z" transform="translate(0 -2.39)"/><path class="cls-1" d="M174.91,14h-.54l-.07-2.59v-.36h6.3v.36L180.52,14H180V11.62h-5.08Zm4.14-8.6h-2.56l-.32,2.71c-.3,2.62-.86,3.11-1.28,3.31l-.32-.37c.41-.22.75-.69,1-3L176,4.89h3.68v6.53h-.62Z" transform="translate(0 -2.39)"/><path class="cls-1" d="M182.15,10c0-1.5,1.35-2.21,4.34-2.54,0-1-.26-2.14-1.59-2.14a3.71,3.71,0,0,0-2.14.79l-.29-.46A4.51,4.51,0,0,1,185,4.73c1.59,0,2.13,1.15,2.13,2.59v4.3h-.53l-.06-.87h0a4,4,0,0,1-2.39,1A1.76,1.76,0,0,1,182.15,10Zm4.34.22V7.88c-2.76.32-3.71,1-3.71,2a1.27,1.27,0,0,0,1.43,1.34A3.52,3.52,0,0,0,186.49,10.17Z" transform="translate(0 -2.39)"/><path class="cls-1" d="M191,7.84h1.7V4.89h.56v3H195l2.23,3.78h-.69l-1.85-3.24h-1.39v3.24h-.56V8.38h-1.39l-1.85,3.24h-.68Zm-.75-1.41c-.36-.91-.68-1.07-1-1.07a.42.42,0,0,0-.2,0l-.14-.6a.71.71,0,0,1,.31-.06c.59,0,1.09.31,1.55,1.45l.8,2-.55.08Zm4.18,1.76.8-2c.46-1.14,1-1.45,1.55-1.45a.71.71,0,0,1,.31.06l-.13.6a.49.49,0,0,0-.21,0c-.36,0-.68.16-1,1.07L195,8.27Z" transform="translate(0 -2.39)"/><path class="cls-2" d="M69.71,22.12A2.17,2.17,0,0,0,72.08,20a2.15,2.15,0,0,0-2.37-2.11A2.17,2.17,0,0,0,67.34,20,2.19,2.19,0,0,0,69.71,22.12Z" transform="translate(0 -2.39)"/><path class="cls-2" d="M67.37,22.48V38h-4.1V22.32c0-.87-.63-1.4-1.73-1V18.44a4.88,4.88,0,0,1,2.06-.58C66.42,17.86,67.37,19.7,67.37,22.48Z" transform="translate(0 -2.39)"/><path class="cls-2" d="M92.26,30.45c0-3.76-2-6.63-5.88-6.63a6.38,6.38,0,0,0-5.2,2.79V24.15H78.7v-.83c0-1.42.59-2,1.59-2a4.31,4.31,0,0,1,1.42.28l.76-3a8.41,8.41,0,0,0-2.76-.5c-3.74,0-5.1,2.39-5.1,5.32v.75l-5.92,0V38h4.1V27.36h1.82V38H78.7V27.36h2a8,8,0,0,0-.86,3.71c0,4.57,3,7.24,7,7.24a9,9,0,0,0,4.91-1.56l-1.37-2.48a5.58,5.58,0,0,1-3,.92,3.35,3.35,0,0,1-3.6-2.93h8.28A9.19,9.19,0,0,0,92.26,30.45Zm-8.47-.89a2.73,2.73,0,0,1,2.67-2.62c1.65,0,2.31,1.09,2.31,2.62Z" transform="translate(0 -2.39)"/><path class="cls-1" d="M55.79,33.91V18.44h4.1V34.08c0,.86.63,1.4,1.73,1V38a4.73,4.73,0,0,1-2.06.59C56.74,38.54,55.79,36.7,55.79,33.91Z" transform="translate(0 -2.39)"/><path class="cls-1" d="M16.27,22.12A2.17,2.17,0,0,0,18.64,20a2.15,2.15,0,0,0-2.37-2.11A2.16,2.16,0,0,0,13.91,20,2.18,2.18,0,0,0,16.27,22.12Z" transform="translate(0 -2.39)"/><path class="cls-1" d="M32.56,22.12A2.18,2.18,0,0,0,34.93,20a2.15,2.15,0,0,0-2.37-2.11A2.17,2.17,0,0,0,30.19,20,2.19,2.19,0,0,0,32.56,22.12Z" transform="translate(0 -2.39)"/><path class="cls-1" d="M49.44,23.82a11.13,11.13,0,0,0-5.57,1.62V24.15H40.55V20.48h-3.4l-.47,3.67h-9.4a10.34,10.34,0,0,1-1.91-.21A7.29,7.29,0,0,0,24,23.82c-2.84,0-5.44,1.52-5.68,4.53v-4.2h-4.1v2.19c-.82-4.66-4.18-6.76-9-6.76H0V38H5.43c4.66,0,8-2.22,8.81-6.91V38h4.1V29.16a4.41,4.41,0,0,0,1.84,3.24v.11a3.36,3.36,0,0,0-1.56,2.6,2.67,2.67,0,0,0,1.28,2.34v.11a3.24,3.24,0,0,0-2,2.79c0,2.45,2.57,3.51,5.8,3.51,4.74,0,7.72-2.09,7.72-5a3.74,3.74,0,0,0-.11-.92h3.29V27.36h1.84V33c0,3.2,1.33,5.35,4.76,5.35a10.1,10.1,0,0,0,3.07-.5L44.12,37a4,4,0,0,0,3.06,1.27,6,6,0,0,0,4-1.75h.11L51.58,38h3.35V30.06C54.93,25.83,53,23.82,49.44,23.82ZM5,34.64h-.8V22.94H5c3.13,0,5.22,1.36,5.22,5.76S8.08,34.64,5,34.64ZM24,26.58c1.09,0,1.9.78,1.9,2.23s-.81,2.31-1.9,2.31-1.89-.78-1.89-2.31S22.94,26.58,24,26.58Zm.34,14.71c-1.84,0-3.07-.55-3.07-1.59a1.78,1.78,0,0,1,.76-1.36,8,8,0,0,0,1.95.17h1.42c1.36,0,2.12.22,2.12,1.08S26.2,41.29,24.36,41.29Zm6.17-4.71c-.87-.82-2.34-1.19-4.36-1.19H23.94c-1.53,0-2.09-.34-2.09-1a1.18,1.18,0,0,1,.5-1A5.4,5.4,0,0,0,24,33.6c3,0,5.44-1.48,5.44-4.65A3.65,3.65,0,0,0,29,27.14h1.52ZM50.83,34a3,3,0,0,1-2.26,1.17c-1,0-1.59-.41-1.59-1.31s1-1.89,3.85-2.28Zm-7.77.17a4.83,4.83,0,0,0,.07.86,3.16,3.16,0,0,1-.79.12c-1.09,0-1.79-.64-1.79-2.2V27.36h3.32V26.25L45,28.33a7.32,7.32,0,0,1,3.65-1.25,1.91,1.91,0,0,1,2.17,2C45.37,29.64,43.06,31.23,43.06,34.13Z" transform="translate(0 -2.39)"/></g></g></svg>