<?xml version="1.0" encoding="UTF-8"?>
<svg width="40px" height="40px" viewBox="0 0 40 40" version="1.1" xmlns="http://www.w3.org/2000/svg" xmlns:xlink="http://www.w3.org/1999/xlink">
    <!-- Generator: Sketch 48.1 (47250) - http://www.bohemiancoding.com/sketch -->
    <title>Fill 1</title>
    <desc>Created with Sketch.</desc>
    <defs></defs>
    <g id="Page-1" stroke="none" stroke-width="1" fill="none" fill-rule="evenodd">
        <g transform="translate(-54.000000, -28.000000)" fill="#FFFFFF" id="Fill-1">
            <g transform="translate(0.000000, 28.000000)">
                <g transform="translate(54.000000, 0.000000)">
                    <path d="M31.9826,26.1902 L31.9816,26.1902 C31.9816,27.3742 31.0226,28.3332 29.8386,28.3332 L10.1616,28.3332 C8.9776,28.3332 8.0186,27.3742 8.0186,26.1902 L8.0186,14.8752 C8.0186,14.7492 8.0316,14.6272 8.0526,14.5082 L19.3596,21.5592 C19.3736,21.5672 19.3886,21.5732 19.4026,21.5822 C19.4176,21.5902 19.4326,21.5982 19.4486,21.6062 C19.5276,21.6472 19.6106,21.6802 19.6946,21.7022 C19.7026,21.7042 19.7116,21.7052 19.7206,21.7072 C19.8126,21.7292 19.9066,21.7422 19.9996,21.7422 L20.0006,21.7422 L20.0016,21.7422 C20.0946,21.7422 20.1886,21.7292 20.2806,21.7072 C20.2896,21.7052 20.2976,21.7042 20.3066,21.7022 C20.3906,21.6802 20.4726,21.6472 20.5526,21.6062 C20.5676,21.5982 20.5836,21.5902 20.5986,21.5822 C20.6126,21.5732 20.6276,21.5672 20.6416,21.5592 L31.9486,14.5082 C31.9696,14.6272 31.9826,14.7492 31.9826,14.8752 L31.9826,26.1902 Z M19.9996,7.0242 L31.8356,14.4052 L8.1646,14.4052 L19.9996,7.0242 Z M19.9996,0.0002 C8.9546,0.0002 -0.0004,8.9542 -0.0004,20.0002 C-0.0004,31.0442 8.9546,40.0002 19.9996,40.0002 C31.0446,40.0002 39.9996,31.0442 39.9996,20.0002 C39.9996,8.9542 31.0446,0.0002 19.9996,0.0002 Z"></path>
                </g>
            </g>
        </g>
    </g>
</svg>