<?xml version="1.0" encoding="UTF-8"?>
<svg width="30px" height="30px" viewBox="0 0 30 30" version="1.1" xmlns="http://www.w3.org/2000/svg" xmlns:xlink="http://www.w3.org/1999/xlink">
    <!-- Generator: Sketch 48.1 (47250) - http://www.bohemiancoding.com/sketch -->
    <title>Fill 13</title>
    <desc>Created with Sketch.</desc>
    <defs></defs>
    <g id="Page-1" stroke="none" stroke-width="1" fill="none" fill-rule="evenodd" fill-opacity="0.8">
        <path d="M15,30 C6.71572875,30 0,23.2842712 0,15 C0,6.71572875 6.71572875,0 15,0 C23.2842712,0 30,6.71572875 30,15 C30,23.2842712 23.2842712,30 15,30 Z M19.0239247,8.35783931 L19.0239247,5.01286448 L16.0199366,4.99986457 C12.6859498,4.99986457 11.9289528,7.49684579 11.9289528,9.09183379 L11.9289528,11.321817 L9.99996041,11.321817 L9.99996041,14.7677911 L11.9289528,14.7677911 L11.9289528,24.5737173 L15.9839367,24.5737173 L15.9839367,14.7677911 L18.6599261,14.7677911 L19.0149247,11.324817 L15.9839367,11.324817 L15.9839367,9.29683224 C15.9839367,8.53583797 16.4869347,8.35783931 16.8439333,8.35783931 L19.0239247,8.35783931 Z" id="Fill-13" fill="#FFFFFF"></path>
    </g>
</svg>