<svg xmlns="http://www.w3.org/2000/svg" viewBox="0 0 20 20"><defs><style>.cls-1{fill:#0066ae;}</style></defs><title>footer-phone</title><g id="Слой_2" data-name="Слой 2"><g id="Menu"><path class="cls-1" d="M10,0A10,10,0,1,0,20,10,10,10,0,0,0,10,0Zm5.28,14.59-.8.8a1.5,1.5,0,0,1-.57.23A9.44,9.44,0,0,1,4.37,6.07a1.59,1.59,0,0,1,.24-.55l.8-.8a1.33,1.33,0,0,1,1.25-.29l.17.05a1.59,1.59,0,0,1,.91,1l.41,1.48a1.47,1.47,0,0,1-.33,1.26l-.54.54a5.68,5.68,0,0,0,4,4l.54-.53a1.41,1.41,0,0,1,1.26-.33l1.48.4a1.59,1.59,0,0,1,1,.91l.06.17A1.35,1.35,0,0,1,15.28,14.59Z"/></g></g></svg>