<svg xmlns="http://www.w3.org/2000/svg" viewBox="0 0 17.47 14"><defs><style>.cls-1{fill:#0066ae;}</style></defs><title>footer-email</title><g id="Слой_2" data-name="Слой 2"><g id="Menu"><path class="cls-1" d="M1.71,4.3l2,1.42c1.11.78,2,1.39,2.54,1.81l.42.31.52.38.5.32a3.14,3.14,0,0,0,.56.27,1.55,1.55,0,0,0,.49.09h0a1.45,1.45,0,0,0,.48-.09,2.15,2.15,0,0,0,.56-.26l.51-.32.53-.37.41-.31L15.8,4.36A4.76,4.76,0,0,0,17,3.14a2.61,2.61,0,0,0,.48-1.49A1.52,1.52,0,0,0,17,.53,1.48,1.48,0,0,0,15.92.06L1.61,0A1.4,1.4,0,0,0,.45.51,2.07,2.07,0,0,0,0,1.8,2.4,2.4,0,0,0,.57,3.15,5,5,0,0,0,1.71,4.3Z"/><path class="cls-1" d="M16.48,5.42C14.35,6.87,12.73,8,11.63,8.81c-.37.28-.68.49-.91.65a5.52,5.52,0,0,1-.92.47,2.78,2.78,0,0,1-1.07.24h0a2.85,2.85,0,0,1-1.07-.25,5,5,0,0,1-.91-.48c-.23-.15-.53-.37-.9-.65C5,8.13,3.35,7,1,5.35a5.4,5.4,0,0,1-1-.86l0,7.86a1.55,1.55,0,0,0,.45,1.12,1.5,1.5,0,0,0,1.1.47L15.86,14a1.47,1.47,0,0,0,1.1-.46,1.57,1.57,0,0,0,.47-1.12l0-7.86A5.44,5.44,0,0,1,16.48,5.42Z"/></g></g></svg>