<?xml version="1.0" encoding="UTF-8"?>
<svg width="18px" height="40px" viewBox="0 0 18 40" version="1.1" xmlns="http://www.w3.org/2000/svg" xmlns:xlink="http://www.w3.org/1999/xlink">
    <!-- Generator: Sketch 48.1 (47250) - http://www.bohemiancoding.com/sketch -->
    <title>Fill 1</title>
    <desc>Created with Sketch.</desc>
    <defs></defs>
    <g id="Page-1" stroke="none" stroke-width="1" fill="none" fill-rule="evenodd">
        <g fill="#FFFFFF" id="Fill-1">
            <path d="M17.6736,4.671 C17.6736,5.958 17.1886,7.057 16.2136,7.961 C15.2416,8.868 14.0696,9.322 12.6996,9.322 C11.3246,9.322 10.1506,8.868 9.1666,7.961 C8.1856,7.057 7.6936,5.958 7.6936,4.671 C7.6936,3.387 8.1856,2.286 9.1666,1.371 C10.1486,0.457 11.3246,0 12.6996,0 C14.0696,0 15.2416,0.458 16.2136,1.371 C17.1896,2.286 17.6736,3.387 17.6736,4.671 M17.1446,35.683 L16.5856,37.968 C14.9086,38.63 13.5696,39.133 12.5726,39.48 C11.5736,39.827 10.4136,40 9.0916,40 C7.0616,40 5.4836,39.503 4.3576,38.515 C3.2316,37.524 2.6676,36.267 2.6676,34.743 C2.6676,34.152 2.7086,33.546 2.7936,32.927 C2.8796,32.308 3.0156,31.611 3.2026,30.832 L5.2976,23.415 C5.4836,22.705 5.6426,22.032 5.7696,21.396 C5.8976,20.763 5.9596,20.181 5.9596,19.657 C5.9596,18.711 5.7636,18.048 5.3736,17.675 C4.9836,17.304 4.2386,17.115 3.1326,17.115 C2.5906,17.115 2.0336,17.202 1.4666,17.37 C0.8966,17.538 0.4096,17.701 -0.0004,17.853 L0.5606,15.566 C1.9336,15.007 3.2456,14.528 4.5006,14.131 C5.7556,13.733 6.9416,13.534 8.0626,13.534 C10.0786,13.534 11.6346,14.021 12.7266,14.995 C13.8196,15.97 14.3646,17.234 14.3646,18.792 C14.3646,19.114 14.3296,19.682 14.2516,20.494 C14.1766,21.307 14.0366,22.053 13.8326,22.731 L11.7456,30.117 C11.5746,30.711 11.4206,31.389 11.2876,32.152 C11.1496,32.91 11.0836,33.49 11.0836,33.879 C11.0836,34.859 11.3016,35.529 11.7406,35.885 C12.1826,36.241 12.9426,36.418 14.0236,36.418 C14.5306,36.418 15.1076,36.328 15.7496,36.151 C16.3886,35.974 16.8556,35.819 17.1446,35.683"></path>
        </g>
    </g>
</svg>