<?xml version="1.0" encoding="UTF-8"?>
<svg width="31px" height="31px" viewBox="0 0 31 31" version="1.1" xmlns="http://www.w3.org/2000/svg" xmlns:xlink="http://www.w3.org/1999/xlink">
    <!-- Generator: Sketch 48.1 (47250) - http://www.bohemiancoding.com/sketch -->
    <title>Group 12</title>
    <desc>Created with Sketch.</desc>
    <defs></defs>
    <g id="Page-1" stroke="none" stroke-width="1" fill="none" fill-rule="evenodd" fill-opacity="0.8">
        <g id="Group-12" fill="#FFFFFF">
            <path d="M17.9771,15.8223 C17.9771,17.4083 16.6921,18.6933 15.1061,18.6933 C13.5201,18.6933 12.2351,17.4083 12.2351,15.8223 C12.2351,14.2373 13.5201,12.9513 15.1061,12.9513 C16.6921,12.9513 17.9771,14.2373 17.9771,15.8223" id="Fill-6"></path>
            <path d="M19.7037,12.2583 C19.1327,12.2583 18.6697,11.7953 18.6697,11.2243 C18.6697,10.6543 19.1327,10.1913 19.7037,10.1913 C20.2747,10.1913 20.7377,10.6543 20.7377,11.2243 C20.7367,11.7953 20.2747,12.2583 19.7037,12.2583 M15.1057,20.2453 C12.6627,20.2453 10.6827,18.2653 10.6827,15.8223 C10.6827,13.3793 12.6627,11.3993 15.1057,11.3993 C17.5487,11.3993 19.5287,13.3793 19.5287,15.8223 C19.5287,18.2653 17.5487,20.2453 15.1057,20.2453 M21.8207,10.7423 C21.6827,10.3683 21.4627,10.0303 21.1757,9.7523 C20.8987,9.4663 20.5597,9.2463 20.1857,9.1083 C19.8817,8.9903 19.4267,8.8493 18.5867,8.8113 C17.6777,8.7703 17.4057,8.7613 15.1057,8.7613 C12.8057,8.7613 12.5337,8.7703 11.6257,8.8113 C10.7857,8.8493 10.3297,8.9903 10.0267,9.1083 C9.6517,9.2463 9.3137,9.4663 9.0357,9.7523 C8.7497,10.0303 8.5297,10.3683 8.3907,10.7423 C8.2737,11.0463 8.1327,11.5023 8.0947,12.3423 C8.0537,13.2503 8.0447,13.5223 8.0447,15.8223 C8.0447,18.1223 8.0537,18.3953 8.0947,19.3033 C8.1327,20.1433 8.2737,20.5993 8.3907,20.9023 C8.5297,21.2773 8.7497,21.6153 9.0357,21.8933 C9.3137,22.1793 9.6517,22.3993 10.0257,22.5373 C10.3297,22.6553 10.7857,22.7953 11.6257,22.8343 C12.5337,22.8753 12.8057,22.8833 15.1057,22.8833 C17.4057,22.8833 17.6787,22.8753 18.5867,22.8343 C19.4257,22.7953 19.8817,22.6553 20.1857,22.5373 C20.9367,22.2473 21.5307,21.6543 21.8207,20.9023 C21.9387,20.5993 22.0787,20.1433 22.1167,19.3033 C22.1587,18.3953 22.1667,18.1223 22.1667,15.8223 C22.1667,13.5223 22.1587,13.2503 22.1167,12.3423 C22.0787,11.5023 21.9387,11.0463 21.8207,10.7423" id="Fill-8"></path>
            <path d="M23.6673,19.3735 C23.6253,20.2905 23.4803,20.9165 23.2673,21.4645 C22.8193,22.6215 21.9053,23.5365 20.7483,23.9835 C20.2003,24.1965 19.5733,24.3415 18.6573,24.3835 C17.7393,24.4255 17.4453,24.4355 15.1063,24.4355 C12.7663,24.4355 12.4733,24.4255 11.5543,24.3835 C10.6383,24.3415 10.0123,24.1965 9.4643,23.9835 C8.8893,23.7675 8.3683,23.4285 7.9383,22.9895 C7.5003,22.5605 7.1613,22.0395 6.9453,21.4645 C6.7323,20.9165 6.5863,20.2905 6.5443,19.3735 C6.5023,18.4555 6.4923,18.1615 6.4923,15.8225 C6.4923,13.4835 6.5023,13.1895 6.5443,12.2715 C6.5863,11.3545 6.7313,10.7285 6.9443,10.1805 C7.1613,9.6055 7.5003,9.0845 7.9383,8.6555 C8.3683,8.2165 8.8893,7.8775 9.4643,7.6615 C10.0123,7.4485 10.6383,7.3035 11.5543,7.2615 C12.4733,7.2195 12.7663,7.2085 15.1063,7.2085 C17.4453,7.2085 17.7383,7.2195 18.6573,7.2615 C19.5733,7.3035 20.2003,7.4485 20.7483,7.6615 C21.3223,7.8775 21.8433,8.2165 22.2733,8.6555 C22.7113,9.0855 23.0513,9.6055 23.2673,10.1805 C23.4803,10.7285 23.6253,11.3545 23.6673,12.2715 C23.7093,13.1895 23.7193,13.4835 23.7193,15.8225 C23.7193,18.1615 23.7093,18.4555 23.6673,19.3735 M15.1063,0.8225 C6.8233,0.8225 0.1063,7.5395 0.1063,15.8225 C0.1063,24.1055 6.8233,30.8225 15.1063,30.8225 C23.3893,30.8225 30.1063,24.1055 30.1063,15.8225 C30.1063,7.5395 23.3893,0.8225 15.1063,0.8225" id="Fill-10"></path>
        </g>
    </g>
</svg>