<svg xmlns="http://www.w3.org/2000/svg" viewBox="0 0 17.41 17.41"><defs><style>.cls-1{fill:#0066ae;}</style></defs><title>insta-contact</title><g id="Слой_2" data-name="Слой 2"><g id="Menu"><path class="cls-1" d="M10.37,8.71A1.67,1.67,0,1,1,8.71,7,1.66,1.66,0,0,1,10.37,8.71Z"/><path class="cls-1" d="M12.6,5.76a1.59,1.59,0,0,0-.95-1,2.63,2.63,0,0,0-.92-.17c-.53,0-.69,0-2,0s-1.5,0-2,0a2.65,2.65,0,0,0-.93.17,1.59,1.59,0,0,0-1,1,2.65,2.65,0,0,0-.17.93c0,.52,0,.68,0,2s0,1.49,0,2a2.63,2.63,0,0,0,.17.92,1.59,1.59,0,0,0,1,.95,2.65,2.65,0,0,0,.93.17c.52,0,.68,0,2,0s1.49,0,2,0a2.65,2.65,0,0,0,.93-.17,1.65,1.65,0,0,0,.95-.95,2.63,2.63,0,0,0,.17-.92c0-.53,0-.69,0-2s0-1.5,0-2A2.65,2.65,0,0,0,12.6,5.76ZM8.71,11.27a2.57,2.57,0,1,1,2.56-2.56A2.57,2.57,0,0,1,8.71,11.27Zm2.66-4.63A.6.6,0,1,1,12,6,.6.6,0,0,1,11.37,6.64Z"/><path class="cls-1" d="M8.71,0a8.71,8.71,0,1,0,8.7,8.71A8.71,8.71,0,0,0,8.71,0Zm5,10.77A3.66,3.66,0,0,1,13.44,12,2.56,2.56,0,0,1,12,13.44a3.66,3.66,0,0,1-1.21.23c-.54,0-.71,0-2.06,0s-1.53,0-2.07,0a3.66,3.66,0,0,1-1.21-.23,2.33,2.33,0,0,1-.88-.58A2.26,2.26,0,0,1,4,12a3.66,3.66,0,0,1-.23-1.21c0-.54,0-.71,0-2.06s0-1.53,0-2.07A3.66,3.66,0,0,1,4,5.43a2.33,2.33,0,0,1,.58-.88A2.33,2.33,0,0,1,5.43,4a3.66,3.66,0,0,1,1.21-.23c.54,0,.71,0,2.07,0s1.52,0,2.06,0A3.66,3.66,0,0,1,12,4a2.26,2.26,0,0,1,.88.58,2.33,2.33,0,0,1,.58.88,3.42,3.42,0,0,1,.23,1.21c0,.54,0,.71,0,2.07S13.7,10.23,13.67,10.77Z"/></g></g></svg>