<?xml version="1.0" encoding="UTF-8"?>
<svg width="30px" height="30px" viewBox="0 0 30 30" version="1.1" xmlns="http://www.w3.org/2000/svg" xmlns:xlink="http://www.w3.org/1999/xlink">
    <!-- Generator: Sketch 48.1 (47250) - http://www.bohemiancoding.com/sketch -->
    <title>inst</title>
    <desc>Created with Sketch.</desc>
    <defs></defs>
    <g id="Page-1" stroke="none" stroke-width="1" fill="none" fill-rule="evenodd">
        <g id="inst">
            <g id="Page-1" fill="#0066AE">
                <circle id="Oval" cx="15" cy="15" r="15"></circle>
            </g>
            <path d="M19.2111,12.0495 C18.6401,12.0495 18.1771,11.5865 18.1771,11.0155 C18.1771,10.4455 18.6401,9.9825 19.2111,9.9825 C19.7821,9.9825 20.2451,10.4455 20.2451,11.0155 C20.2441,11.5865 19.7821,12.0495 19.2111,12.0495 Z M14.6131,20.0355 C12.1701,20.0355 10.1901,18.0565 10.1901,15.6125 C10.1901,13.1705 12.1701,11.1905 14.6131,11.1905 C17.0561,11.1905 19.0361,13.1705 19.0361,15.6125 C19.0361,18.0565 17.0561,20.0355 14.6131,20.0355 Z M17.4844,15.6129 C17.4844,14.0279 16.1994,12.7419 14.6134,12.7419 C13.0274,12.7419 11.7424,14.0279 11.7424,15.6129 C11.7424,17.1989 13.0274,18.4839 14.6134,18.4839 C16.1994,18.4839 17.4844,17.1989 17.4844,15.6129 Z" id="Combined-Shape" fill="#FFFFFF"></path>
            <g id="Group-7" transform="translate(6.000000, 6.226600)" fill="#FFFFFF">
                <path d="M17.1746,12.9381 C17.1326,13.8551 16.9876,14.4811 16.7746,15.0291 C16.3266,16.1851 15.4126,17.1001 14.2556,17.5471 C13.7076,17.7601 13.0816,17.9061 12.1646,17.9481 C11.2466,17.9901 10.9526,18.0001 8.6136,18.0001 C6.2746,18.0001 5.9806,17.9901 5.0626,17.9481 C4.1456,17.9061 3.5196,17.7601 2.9716,17.5471 C2.3966,17.3321 1.8766,16.9931 1.4456,16.5541 C1.0076,16.1241 0.6686,15.6031 0.4526,15.0291 C0.2396,14.4811 0.0936,13.8551 0.0526,12.9381 C0.0096,12.0191 -0.0004,11.7261 -0.0004,9.3861 C-0.0004,7.0471 0.0096,6.7541 0.0516,5.8351 C0.0936,4.9181 0.2396,4.2921 0.4516,3.7451 C0.6686,3.1701 1.0076,2.6491 1.4456,2.2191 C1.8756,1.7811 2.3966,1.4421 2.9716,1.2261 C3.5196,1.0131 4.1456,0.8671 5.0626,0.8261 C5.9806,0.7841 6.2746,0.7731 8.6136,0.7731 C10.9526,0.7731 11.2456,0.7841 12.1646,0.8261 C13.0816,0.8671 13.7076,1.0131 14.2556,1.2251 C14.8296,1.4421 15.3506,1.7811 15.7806,2.2191 C16.2186,2.6501 16.5586,3.1701 16.7746,3.7451 C16.9876,4.2921 17.1326,4.9181 17.1746,5.8351 C17.2166,6.7541 17.2266,7.0471 17.2266,9.3861 C17.2266,11.7261 17.2166,12.0191 17.1746,12.9381 Z M15.3281,4.3069 C15.1901,3.9329 14.9691,3.5939 14.6831,3.3169 C14.4061,3.0309 14.0671,2.8099 13.6931,2.6729 C13.3891,2.5539 12.9341,2.4139 12.0941,2.3759 C11.1851,2.3349 10.9131,2.3259 8.6131,2.3259 C6.3131,2.3259 6.0411,2.3349 5.1331,2.3759 C4.2931,2.4139 3.8371,2.5539 3.5331,2.6729 C3.1591,2.8099 2.8211,3.0309 2.5431,3.3169 C2.2571,3.5939 2.0371,3.9319 1.8981,4.3069 C1.7811,4.6099 1.6401,5.0669 1.6021,5.9059 C1.5611,6.8139 1.5521,7.0869 1.5521,9.3869 C1.5521,11.6869 1.5611,11.9599 1.6021,12.8679 C1.6401,13.7079 1.7811,14.1639 1.8981,14.4669 C2.0371,14.8419 2.2571,15.1789 2.5431,15.4569 C2.8211,15.7429 3.1591,15.9639 3.5331,16.1009 C3.8371,16.2189 4.2931,16.3599 5.1331,16.3979 C6.0411,16.4389 6.3131,16.4479 8.6131,16.4479 C10.9131,16.4479 11.1861,16.4389 12.0941,16.3979 C12.9331,16.3599 13.3891,16.2189 13.6931,16.1009 C14.4441,15.8119 15.0381,15.2189 15.3281,14.4669 C15.4461,14.1639 15.5861,13.7079 15.6241,12.8679 C15.6661,11.9599 15.6741,11.6869 15.6741,9.3869 C15.6741,7.0869 15.6661,6.8139 15.6241,5.9059 C15.5861,5.0669 15.4461,4.6099 15.3281,4.3069 Z" id="Combined-Shape"></path>
            </g>
        </g>
    </g>
</svg>