<?xml version="1.0" encoding="UTF-8"?>
<svg width="173px" height="49px" viewBox="0 0 173 49" version="1.1" xmlns="http://www.w3.org/2000/svg" xmlns:xlink="http://www.w3.org/1999/xlink">
    <!-- Generator: Sketch 48.1 (47250) - http://www.bohemiancoding.com/sketch -->
    <title>Page 1</title>
    <desc>Created with Sketch.</desc>
    <defs>
        <polygon id="path-1" points="0.286130397 0.6751 69.2393 0.6751 69.2393 5 0.286130397 5"></polygon>
    </defs>
    <g id="Page-1" stroke="none" stroke-width="1" fill="none" fill-rule="evenodd">
        <g>
            <polygon id="Fill-1" fill="#0066AE" points="18.7344 0.0001 0.0004 13.4191 7.4934 36.9461"></polygon>
            <polygon id="Fill-2" fill="#E20613" points="14.2906 27.5356 11.0666 37.7306 30.0626 37.7306"></polygon>
            <polygon id="Fill-3" fill="#E20613" points="15.8591 22.1327 22.4811 0.0867 38.6021 12.2867"></polygon>
            <polygon id="Fill-4" fill="#0066AE" points="17.7762 25.5312 40.0832 15.6852 33.6352 35.7262"></polygon>
            <polygon id="Fill-5" fill="#0066AE" points="48.4193 15.7524 42.7613 35.4384 46.9003 35.4384 49.4143 27.0394 57.2733 35.4384 63.8743 35.4384 53.9723 24.9394 68.1173 15.7524 62.1973 15.7524 50.3053 23.7314 52.5583 15.6994"></polygon>
            <polygon id="Fill-6" fill="#0066AE" points="96.9163 35.4379 93.3503 35.4379 99.3533 15.7589 102.8743 15.7589 107.6583 27.5389 119.5293 15.7139 123.1393 15.7139 117.1823 35.4379 113.0743 35.4379 117.2273 21.8969 106.3943 33.0909 105.2213 33.0459 101.0683 21.8069"></polygon>
            <polygon id="Fill-7" fill="#0066AE" points="128.1949 15.7587 122.5079 35.4377 125.7129 35.4377 143.4049 21.8517 139.3879 35.4377 143.2249 35.4377 148.7309 15.7587 145.7529 15.7587 128.1049 28.9837 132.0309 15.7587"></polygon>
            <g id="Group-19" transform="translate(4.000000, 15.072700)">
                <path d="M70.6772,4.1621 L67.1532,16.7011 L80.4932,16.7011 L84.2682,4.1261 L70.6772,4.1621 Z M71.8272,0.6671 C76.5862,0.6551 81.3442,0.6431 86.1022,0.6311 C87.9902,0.8041 89.0692,1.7291 88.3682,4.3061 C87.1332,8.4971 85.8982,12.6891 84.6642,16.8811 C84.0162,19.1151 82.5062,20.2921 80.1332,20.4121 L65.3192,20.4121 C62.5102,20.0561 62.3252,18.5721 62.8742,16.7731 C64.2172,12.4131 65.5592,8.0531 66.9012,3.6931 C67.6082,1.8631 68.8182,0.4761 71.8272,0.6671 Z" id="Fill-8" fill="#0066AE"></path>
                <path d="M154.3087,0.667 C159.0667,0.655 161.1217,0.602 165.8807,0.59 C167.7677,0.763 168.8467,1.688 168.1457,4.265 L167.2857,7.183 L163.1167,7.183 L164.0467,4.085 L153.1587,4.162 L149.6347,16.701 L160.2707,16.66 L161.2677,13.34 L165.4727,13.34 L164.4417,16.84 C163.7947,19.074 162.2847,20.251 159.9117,20.372 C154.9737,20.372 152.7387,20.412 147.8007,20.412 C144.9907,20.056 144.8057,18.572 145.3557,16.773 C146.6977,12.413 148.0407,8.053 149.3827,3.693 C150.0887,1.863 151.2987,0.476 154.3087,0.667" id="Fill-10" fill="#0066AE"></path>
                <g id="Group-14" transform="translate(0.000000, 28.000000)">
                    <mask id="mask-2" fill="white">
                        <use xlink:href="#path-1"></use>
                    </mask>
                    <g id="Clip-13"></g>
                    <path d="M68.0543,1.8691 C68.0543,1.7651 68.0223,1.6761 67.9563,1.6001 C67.8903,1.5251 67.7883,1.4721 67.6523,1.4411 C67.5923,1.4271 67.5243,1.4161 67.4503,1.4111 C67.3753,1.4051 67.2933,1.4031 67.2013,1.4031 L66.7053,1.4031 L66.3283,2.8251 L66.8443,2.8251 C67.0083,2.8251 67.1483,2.8101 67.2643,2.7801 C67.3813,2.7521 67.4823,2.7131 67.5703,2.6651 C67.6583,2.6191 67.7323,2.5621 67.7943,2.4971 C67.8553,2.4321 67.9053,2.3651 67.9443,2.2931 C67.9823,2.2221 68.0123,2.1501 68.0283,2.0781 C68.0453,2.0061 68.0543,1.9361 68.0543,1.8691 Z M69.2393,1.7731 C69.2393,1.8931 69.2213,2.0191 69.1853,2.1511 C69.1503,2.2821 69.0913,2.4111 69.0123,2.5361 C68.9323,2.6631 68.8283,2.7831 68.7013,2.8961 C68.5733,3.0091 68.4183,3.1091 68.2323,3.1961 C68.0483,3.2841 67.8353,3.3521 67.5923,3.4031 C67.3493,3.4531 67.0643,3.4791 66.7343,3.4791 L66.1553,3.4791 L65.8013,4.8151 C65.7973,4.8361 65.7823,4.8551 65.7593,4.8731 C65.7353,4.8901 65.7003,4.9041 65.6523,4.9151 C65.6023,4.9251 65.5413,4.9341 65.4663,4.9391 C65.3933,4.9451 65.3013,4.9471 65.1923,4.9471 C65.0863,4.9471 64.9993,4.9451 64.9293,4.9391 C64.8593,4.9341 64.8053,4.9251 64.7643,4.9151 C64.7243,4.9041 64.6983,4.8911 64.6833,4.8741 C64.6693,4.8581 64.6663,4.8381 64.6743,4.8151 L65.6753,1.0521 C65.7003,0.9511 65.7563,0.8751 65.8423,0.8241 C65.9273,0.7731 66.0323,0.7481 66.1563,0.7481 L67.3693,0.7481 C67.5193,0.7481 67.6523,0.7511 67.7693,0.7591 C67.8863,0.7671 68.0013,0.7791 68.1153,0.7971 C68.2903,0.8221 68.4463,0.8631 68.5853,0.9171 C68.7243,0.9701 68.8413,1.0371 68.9393,1.1191 C69.0363,1.1991 69.1103,1.2941 69.1623,1.4031 C69.2133,1.5121 69.2393,1.6341 69.2393,1.7731 Z M64.7043,0.8841 C64.7043,0.8991 64.7013,0.9231 64.6973,0.9561 C64.6933,0.9901 64.6853,1.0271 64.6773,1.0681 C64.6663,1.1081 64.6533,1.1511 64.6373,1.1961 C64.6223,1.2401 64.6033,1.2801 64.5813,1.3171 C64.5613,1.3531 64.5353,1.3831 64.5053,1.4071 C64.4753,1.4301 64.4423,1.4421 64.4093,1.4421 L63.0193,1.4421 L62.1223,4.8111 C62.1133,4.8321 62.0993,4.8521 62.0753,4.8701 C62.0533,4.8871 62.0183,4.9011 61.9713,4.9121 C61.9233,4.9221 61.8633,4.9311 61.7913,4.9371 C61.7183,4.9441 61.6263,4.9471 61.5153,4.9471 C61.4073,4.9471 61.3163,4.9441 61.2443,4.9371 C61.1733,4.9311 61.1193,4.9221 61.0793,4.9121 C61.0413,4.9011 61.0153,4.8871 61.0023,4.8701 C60.9903,4.8521 60.9853,4.8321 60.9913,4.8111 L61.8873,1.4421 L60.5063,1.4421 C60.4633,1.4421 60.4343,1.4301 60.4183,1.4071 C60.4023,1.3831 60.3943,1.3511 60.3943,1.3101 C60.3943,1.2921 60.3963,1.2671 60.4003,1.2341 C60.4053,1.2011 60.4123,1.1631 60.4223,1.1201 C60.4323,1.0781 60.4443,1.0361 60.4603,0.9921 C60.4763,0.9481 60.4953,0.9081 60.5173,0.8701 C60.5413,0.8341 60.5663,0.8041 60.5953,0.7821 C60.6233,0.7591 60.6553,0.7481 60.6883,0.7481 L64.5963,0.7481 C64.6313,0.7481 64.6583,0.7601 64.6773,0.7831 C64.6943,0.8071 64.7043,0.8411 64.7043,0.8841 Z M59.7723,1.1551 C59.7723,1.2141 59.7593,1.2961 59.7313,1.3971 C59.7053,1.4981 59.6693,1.5801 59.6283,1.6401 C59.5873,1.7021 59.5413,1.7331 59.4903,1.7331 C59.4513,1.7331 59.4083,1.7161 59.3563,1.6791 C59.3053,1.6441 59.2383,1.6051 59.1543,1.5651 C59.0723,1.5241 58.9663,1.4851 58.8383,1.4501 C58.7103,1.4141 58.5493,1.3961 58.3593,1.3961 C58.1463,1.3961 57.9533,1.4281 57.7793,1.4911 C57.6053,1.5551 57.4493,1.6391 57.3123,1.7431 C57.1753,1.8471 57.0553,1.9671 56.9533,2.1021 C56.8493,2.2381 56.7643,2.3781 56.6973,2.5251 C56.6293,2.6711 56.5803,2.8171 56.5473,2.9621 C56.5143,3.1061 56.4983,3.2421 56.4983,3.3671 C56.4983,3.5161 56.5223,3.6491 56.5723,3.7641 C56.6233,3.8771 56.6953,3.9721 56.7893,4.0471 C56.8843,4.1211 56.9993,4.1791 57.1373,4.2161 C57.2743,4.2541 57.4283,4.2721 57.6013,4.2721 C57.8033,4.2721 57.9773,4.2561 58.1223,4.2241 C58.2653,4.1921 58.3883,4.1561 58.4903,4.1171 C58.5913,4.0781 58.6763,4.0421 58.7423,4.0101 C58.8093,3.9781 58.8713,3.9621 58.9253,3.9621 C58.9613,3.9621 58.9863,3.9721 58.9983,3.9931 C59.0113,4.0131 59.0173,4.0411 59.0173,4.0781 C59.0173,4.0931 59.0143,4.1161 59.0083,4.1461 C59.0023,4.1771 58.9953,4.2101 58.9883,4.2481 C58.9793,4.2861 58.9693,4.3271 58.9573,4.3701 C58.9453,4.4141 58.9323,4.4551 58.9193,4.4941 C58.9043,4.5321 58.8883,4.5661 58.8693,4.5981 C58.8503,4.6281 58.8253,4.6561 58.7953,4.6791 C58.7623,4.7031 58.7013,4.7341 58.6103,4.7721 C58.5203,4.8091 58.4073,4.8451 58.2773,4.8761 C58.1453,4.9101 57.9963,4.9371 57.8303,4.9591 C57.6653,4.9821 57.4883,4.9931 57.2993,4.9931 C56.9893,4.9931 56.7083,4.9621 56.4583,4.9001 C56.2083,4.8371 55.9963,4.7431 55.8223,4.6151 C55.6483,4.4891 55.5133,4.3301 55.4193,4.1381 C55.3243,3.9461 55.2773,3.7231 55.2773,3.4671 C55.2773,3.2661 55.3053,3.0591 55.3593,2.8421 C55.4143,2.6261 55.4953,2.4141 55.6053,2.2081 C55.7153,2.0021 55.8543,1.8061 56.0243,1.6211 C56.1923,1.4361 56.3913,1.2741 56.6213,1.1351 C56.8503,0.9971 57.1123,0.8861 57.4053,0.8041 C57.6973,0.7231 58.0223,0.6821 58.3793,0.6821 C58.5803,0.6821 58.7683,0.6971 58.9473,0.7291 C59.1253,0.7601 59.2823,0.8021 59.4133,0.8541 C59.5473,0.9061 59.6403,0.9521 59.6933,0.9941 C59.7453,1.0361 59.7723,1.0901 59.7723,1.1551 Z M54.3423,3.1121 C54.3423,3.1271 54.3403,3.1521 54.3363,3.1831 C54.3323,3.2171 54.3233,3.2521 54.3113,3.2901 C54.3013,3.3301 54.2863,3.3691 54.2693,3.4101 C54.2513,3.4491 54.2323,3.4871 54.2093,3.5211 C54.1853,3.5551 54.1593,3.5841 54.1273,3.6061 C54.0963,3.6271 54.0603,3.6381 54.0203,3.6381 L52.2353,3.6381 C52.1843,3.6381 52.1473,3.6271 52.1273,3.6031 C52.1053,3.5811 52.0953,3.5431 52.0953,3.4891 C52.0953,3.4721 52.0963,3.4461 52.0993,3.4131 C52.1023,3.3791 52.1083,3.3441 52.1183,3.3051 C52.1283,3.2671 52.1423,3.2291 52.1593,3.1891 C52.1773,3.1481 52.1963,3.1121 52.2193,3.0791 C52.2413,3.0451 52.2693,3.0181 52.2993,2.9981 C52.3323,2.9801 52.3683,2.9701 52.4113,2.9701 L54.1963,2.9701 C54.2503,2.9701 54.2883,2.9821 54.3103,3.0071 C54.3323,3.0321 54.3423,3.0671 54.3423,3.1121 Z M50.2083,2.2261 C50.2083,2.0941 50.1893,1.9741 50.1503,1.8691 C50.1123,1.7621 50.0503,1.6721 49.9643,1.5991 C49.8793,1.5261 49.7663,1.4691 49.6273,1.4291 C49.4903,1.3901 49.3203,1.3691 49.1203,1.3691 C48.8713,1.3691 48.6533,1.4061 48.4643,1.4781 C48.2753,1.5501 48.1103,1.6441 47.9703,1.7611 C47.8313,1.8761 47.7123,2.0101 47.6193,2.1591 C47.5233,2.3081 47.4493,2.4611 47.3923,2.6151 C47.3333,2.7681 47.2943,2.9191 47.2693,3.0661 C47.2443,3.2111 47.2323,3.3401 47.2323,3.4491 C47.2323,3.5821 47.2513,3.7021 47.2913,3.8081 C47.3293,3.9131 47.3923,4.0021 47.4803,4.0741 C47.5663,4.1471 47.6803,4.2021 47.8183,4.2411 C47.9573,4.2791 48.1283,4.2991 48.3313,4.2991 C48.5773,4.2991 48.7933,4.2641 48.9823,4.1921 C49.1713,4.1211 49.3353,4.0281 49.4743,3.9131 C49.6113,3.7981 49.7283,3.6661 49.8223,3.5171 C49.9173,3.3691 49.9933,3.2181 50.0503,3.0661 C50.1073,2.9121 50.1483,2.7631 50.1723,2.6161 C50.1963,2.4701 50.2083,2.3391 50.2083,2.2261 Z M51.4023,2.1461 C51.4023,2.3361 51.3793,2.5391 51.3333,2.7541 C51.2883,2.9691 51.2133,3.1821 51.1123,3.3941 C51.0113,3.6061 50.8773,3.8081 50.7113,4.0021 C50.5463,4.1971 50.3443,4.3681 50.1073,4.5141 C49.8703,4.6611 49.5913,4.7801 49.2703,4.8681 C48.9503,4.9561 48.5863,5.0001 48.1773,5.0001 C47.8313,5.0001 47.5253,4.9711 47.2603,4.9131 C46.9953,4.8541 46.7723,4.7651 46.5903,4.6451 C46.4093,4.5251 46.2713,4.3731 46.1773,4.1901 C46.0853,4.0071 46.0393,3.7921 46.0393,3.5441 C46.0393,3.3421 46.0623,3.1311 46.1093,2.9111 C46.1573,2.6901 46.2323,2.4741 46.3373,2.2611 C46.4413,2.0501 46.5783,1.8481 46.7473,1.6561 C46.9153,1.4641 47.1183,1.2961 47.3553,1.1491 C47.5943,1.0041 47.8703,0.8881 48.1883,0.8031 C48.5053,0.7181 48.8673,0.6751 49.2693,0.6751 C49.6163,0.6751 49.9213,0.7051 50.1853,0.7651 C50.4493,0.8231 50.6723,0.9131 50.8533,1.0361 C51.0333,1.1571 51.1693,1.3101 51.2633,1.4951 C51.3553,1.6811 51.4023,1.8971 51.4023,2.1461 Z M44.3223,4.8151 C44.3163,4.8361 44.3013,4.8551 44.2793,4.8731 C44.2563,4.8901 44.2213,4.9041 44.1753,4.9151 C44.1303,4.9251 44.0703,4.9341 43.9953,4.9391 C43.9213,4.9451 43.8293,4.9471 43.7203,4.9471 C43.6123,4.9471 43.5233,4.9451 43.4513,4.9391 C43.3803,4.9341 43.3253,4.9251 43.2863,4.9151 C43.2483,4.9041 43.2223,4.8901 43.2073,4.8731 C43.1943,4.8551 43.1913,4.8361 43.2003,4.8151 L43.6473,3.1221 L41.5743,3.1221 L41.1243,4.8151 C41.1193,4.8361 41.1053,4.8551 41.0813,4.8731 C41.0583,4.8901 41.0233,4.9041 40.9763,4.9151 C40.9293,4.9251 40.8693,4.9341 40.7963,4.9391 C40.7233,4.9451 40.6323,4.9471 40.5223,4.9471 C40.4113,4.9471 40.3223,4.9451 40.2523,4.9391 C40.1813,4.9341 40.1273,4.9251 40.0863,4.9151 C40.0473,4.9041 40.0203,4.8901 40.0063,4.8731 C39.9913,4.8551 39.9883,4.8361 39.9973,4.8151 L41.0503,0.8601 C41.0533,0.8401 41.0673,0.8201 41.0883,0.8021 C41.1123,0.7861 41.1453,0.7711 41.1913,0.7601 C41.2363,0.7501 41.2963,0.7421 41.3693,0.7361 C41.4443,0.7301 41.5353,0.7281 41.6423,0.7281 C41.7513,0.7281 41.8423,0.7301 41.9153,0.7361 C41.9873,0.7421 42.0423,0.7501 42.0833,0.7601 C42.1233,0.7711 42.1513,0.7861 42.1623,0.8021 C42.1753,0.8201 42.1803,0.8401 42.1743,0.8601 L41.7643,2.4011 L43.8383,2.4011 L44.2443,0.8601 C44.2503,0.8401 44.2653,0.8201 44.2883,0.8021 C44.3103,0.7861 44.3453,0.7711 44.3903,0.7601 C44.4363,0.7501 44.4963,0.7421 44.5703,0.7361 C44.6443,0.7301 44.7363,0.7281 44.8443,0.7281 C44.9523,0.7281 45.0433,0.7301 45.1153,0.7361 C45.1863,0.7421 45.2423,0.7501 45.2813,0.7601 C45.3223,0.7711 45.3493,0.7861 45.3623,0.8021 C45.3753,0.8201 45.3783,0.8401 45.3723,0.8601 L44.3223,4.8151 Z M38.3683,1.8691 C38.3683,1.7651 38.3363,1.6761 38.2703,1.6001 C38.2043,1.5251 38.1023,1.4721 37.9663,1.4411 C37.9063,1.4271 37.8383,1.4161 37.7643,1.4111 C37.6893,1.4051 37.6073,1.4031 37.5153,1.4031 L37.0193,1.4031 L36.6423,2.8251 L37.1583,2.8251 C37.3223,2.8251 37.4623,2.8101 37.5783,2.7801 C37.6953,2.7521 37.7963,2.7131 37.8843,2.6651 C37.9713,2.6191 38.0463,2.5621 38.1083,2.4971 C38.1693,2.4321 38.2193,2.3651 38.2583,2.2931 C38.2963,2.2221 38.3263,2.1501 38.3423,2.0781 C38.3593,2.0061 38.3683,1.9361 38.3683,1.8691 Z M39.5533,1.7731 C39.5533,1.8931 39.5353,2.0191 39.4993,2.1511 C39.4643,2.2821 39.4053,2.4111 39.3263,2.5361 C39.2463,2.6631 39.1423,2.7831 39.0153,2.8961 C38.8873,3.0091 38.7323,3.1091 38.5463,3.1961 C38.3623,3.2841 38.1493,3.3521 37.9063,3.4031 C37.6633,3.4531 37.3773,3.4791 37.0483,3.4791 L36.4693,3.4791 L36.1153,4.8151 C36.1113,4.8361 36.0963,4.8551 36.0723,4.8731 C36.0493,4.8901 36.0143,4.9041 35.9663,4.9151 C35.9163,4.9251 35.8553,4.9341 35.7803,4.9391 C35.7073,4.9451 35.6153,4.9471 35.5063,4.9471 C35.4003,4.9471 35.3133,4.9451 35.2433,4.9391 C35.1733,4.9341 35.1193,4.9251 35.0783,4.9151 C35.0383,4.9041 35.0123,4.8911 34.9973,4.8741 C34.9833,4.8581 34.9803,4.8381 34.9883,4.8151 L35.9893,1.0521 C36.0143,0.9511 36.0703,0.8751 36.1563,0.8241 C36.2413,0.7731 36.3463,0.7481 36.4703,0.7481 L37.6833,0.7481 C37.8333,0.7481 37.9663,0.7511 38.0833,0.7591 C38.2003,0.7671 38.3153,0.7791 38.4293,0.7971 C38.6043,0.8221 38.7603,0.8631 38.8993,0.9171 C39.0383,0.9701 39.1553,1.0371 39.2533,1.1191 C39.3503,1.1991 39.4243,1.2941 39.4763,1.4031 C39.5273,1.5121 39.5533,1.6341 39.5533,1.7731 Z M34.6533,0.8711 C34.6533,0.8851 34.6513,0.9071 34.6473,0.9401 C34.6423,0.9721 34.6353,1.0081 34.6263,1.0481 C34.6193,1.0871 34.6073,1.1291 34.5933,1.1721 C34.5783,1.2171 34.5613,1.2551 34.5393,1.2911 C34.5183,1.3271 34.4923,1.3561 34.4623,1.3811 C34.4323,1.4041 34.3993,1.4161 34.3663,1.4161 L32.3853,1.4161 L32.1143,2.4341 L33.7953,2.4341 C33.8353,2.4341 33.8643,2.4451 33.8803,2.4661 C33.8983,2.4881 33.9063,2.5181 33.9063,2.5561 C33.9063,2.5721 33.9053,2.5951 33.9013,2.6261 C33.8963,2.6571 33.8893,2.6931 33.8803,2.7331 C33.8733,2.7731 33.8613,2.8121 33.8463,2.8531 C33.8323,2.8941 33.8143,2.9311 33.7923,2.9671 C33.7723,3.0011 33.7463,3.0281 33.7183,3.0501 C33.6883,3.0711 33.6583,3.0821 33.6233,3.0821 L31.9433,3.0821 L31.6303,4.2591 L33.6373,4.2591 C33.6713,4.2591 33.6973,4.2701 33.7133,4.2931 C33.7313,4.3151 33.7403,4.3481 33.7403,4.3921 C33.7403,4.4071 33.7383,4.4311 33.7353,4.4631 C33.7323,4.4961 33.7273,4.5331 33.7163,4.5721 C33.7063,4.6121 33.6943,4.6531 33.6803,4.6941 C33.6653,4.7341 33.6483,4.7731 33.6273,4.8091 C33.6053,4.8451 33.5803,4.8731 33.5523,4.8951 C33.5233,4.9161 33.4913,4.9271 33.4553,4.9271 L30.6663,4.9271 C30.6213,4.9271 30.5783,4.9231 30.5423,4.9131 C30.5043,4.9031 30.4733,4.8871 30.4493,4.8641 C30.4253,4.8411 30.4083,4.8141 30.4003,4.7811 C30.3913,4.7461 30.3923,4.7071 30.4043,4.6591 L31.3703,1.0161 C31.3963,0.9211 31.4473,0.8531 31.5263,0.8111 C31.6043,0.7691 31.6923,0.7481 31.7873,0.7481 L34.5413,0.7481 C34.6163,0.7481 34.6533,0.7891 34.6533,0.8711 Z M28.8193,4.8151 C28.8133,4.8361 28.7983,4.8551 28.7763,4.8731 C28.7533,4.8901 28.7183,4.9041 28.6733,4.9151 C28.6273,4.9251 28.5673,4.9341 28.4933,4.9391 C28.4183,4.9451 28.3263,4.9471 28.2183,4.9471 C28.1093,4.9471 28.0203,4.9451 27.9483,4.9391 C27.8773,4.9341 27.8233,4.9251 27.7833,4.9151 C27.7453,4.9041 27.7193,4.8901 27.7043,4.8731 C27.6913,4.8551 27.6883,4.8361 27.6973,4.8151 L28.1443,3.1221 L26.0713,3.1221 L25.6213,4.8151 C25.6163,4.8361 25.6023,4.8551 25.5783,4.8731 C25.5553,4.8901 25.5203,4.9041 25.4733,4.9151 C25.4263,4.9251 25.3663,4.9341 25.2933,4.9391 C25.2203,4.9451 25.1293,4.9471 25.0193,4.9471 C24.9083,4.9471 24.8193,4.9451 24.7493,4.9391 C24.6793,4.9341 24.6243,4.9251 24.5833,4.9151 C24.5443,4.9041 24.5183,4.8901 24.5033,4.8731 C24.4883,4.8551 24.4863,4.8361 24.4943,4.8151 L25.5483,0.8601 C25.5513,0.8401 25.5643,0.8201 25.5863,0.8021 C25.6093,0.7861 25.6433,0.7711 25.6883,0.7601 C25.7333,0.7501 25.7933,0.7421 25.8673,0.7361 C25.9413,0.7301 26.0323,0.7281 26.1393,0.7281 C26.2483,0.7281 26.3393,0.7301 26.4123,0.7361 C26.4843,0.7421 26.5403,0.7501 26.5803,0.7601 C26.6203,0.7711 26.6483,0.7861 26.6593,0.8021 C26.6733,0.8201 26.6773,0.8401 26.6713,0.8601 L26.2623,2.4011 L28.3353,2.4011 L28.7413,0.8601 C28.7473,0.8401 28.7623,0.8201 28.7853,0.8021 C28.8073,0.7861 28.8423,0.7711 28.8883,0.7601 C28.9333,0.7501 28.9933,0.7421 29.0683,0.7361 C29.1413,0.7301 29.2333,0.7281 29.3413,0.7281 C29.4493,0.7281 29.5403,0.7301 29.6123,0.7361 C29.6843,0.7421 29.7393,0.7501 29.7793,0.7601 C29.8203,0.7711 29.8463,0.7861 29.8593,0.8021 C29.8723,0.8201 29.8753,0.8401 29.8693,0.8601 L28.8193,4.8151 Z M24.1583,0.8711 C24.1583,0.8851 24.1573,0.9071 24.1533,0.9401 C24.1483,0.9721 24.1413,1.0081 24.1323,1.0481 C24.1253,1.0871 24.1133,1.1291 24.0983,1.1721 C24.0843,1.2171 24.0663,1.2551 24.0443,1.2911 C24.0243,1.3271 23.9983,1.3561 23.9683,1.3811 C23.9373,1.4041 23.9053,1.4161 23.8723,1.4161 L21.8913,1.4161 L21.6203,2.4341 L23.3013,2.4341 C23.3413,2.4341 23.3703,2.4451 23.3863,2.4661 C23.4043,2.4881 23.4123,2.5181 23.4123,2.5561 C23.4123,2.5721 23.4113,2.5951 23.4063,2.6261 C23.4023,2.6571 23.3953,2.6931 23.3863,2.7331 C23.3793,2.7731 23.3673,2.8121 23.3523,2.8531 C23.3383,2.8941 23.3203,2.9311 23.2983,2.9671 C23.2783,3.0011 23.2513,3.0281 23.2243,3.0501 C23.1943,3.0711 23.1643,3.0821 23.1293,3.0821 L21.4493,3.0821 L21.1363,4.2591 L23.1433,4.2591 C23.1773,4.2591 23.2033,4.2701 23.2193,4.2931 C23.2373,4.3151 23.2463,4.3481 23.2463,4.3921 C23.2463,4.4071 23.2443,4.4311 23.2413,4.4631 C23.2383,4.4961 23.2323,4.5331 23.2223,4.5721 C23.2123,4.6121 23.2003,4.6531 23.1863,4.6941 C23.1713,4.7341 23.1533,4.7731 23.1333,4.8091 C23.1113,4.8451 23.0863,4.8731 23.0583,4.8951 C23.0293,4.9161 22.9973,4.9271 22.9603,4.9271 L20.1723,4.9271 C20.1263,4.9271 20.0843,4.9231 20.0473,4.9131 C20.0093,4.9031 19.9793,4.8871 19.9553,4.8641 C19.9303,4.8411 19.9143,4.8141 19.9053,4.7811 C19.8973,4.7461 19.8983,4.7071 19.9103,4.6591 L20.8753,1.0161 C20.9023,0.9211 20.9533,0.8531 21.0323,0.8111 C21.1093,0.7691 21.1973,0.7481 21.2923,0.7481 L24.0473,0.7481 C24.1223,0.7481 24.1583,0.7891 24.1583,0.8711 Z M18.6803,4.7601 C18.6803,4.7981 18.6683,4.8291 18.6483,4.8531 C18.6263,4.8761 18.5913,4.8951 18.5433,4.9101 C18.4943,4.9241 18.4303,4.9341 18.3513,4.9391 C18.2733,4.9451 18.1753,4.9471 18.0573,4.9471 C17.9383,4.9471 17.8423,4.9451 17.7693,4.9391 C17.6963,4.9341 17.6403,4.9251 17.6023,4.9131 C17.5623,4.9011 17.5363,4.8851 17.5233,4.8641 C17.5083,4.8451 17.4993,4.8191 17.4963,4.7881 L17.3473,3.8341 C17.3273,3.7021 17.2983,3.5921 17.2583,3.5021 C17.2173,3.4131 17.1633,3.3401 17.0943,3.2861 C17.0253,3.2311 16.9443,3.1911 16.8463,3.1691 C16.7493,3.1461 16.6363,3.1351 16.5083,3.1351 L16.2813,3.1351 L15.8373,4.8111 C15.8323,4.8351 15.8193,4.8541 15.7973,4.8711 C15.7753,4.8881 15.7413,4.9011 15.6943,4.9131 C15.6493,4.9251 15.5893,4.9341 15.5163,4.9391 C15.4423,4.9451 15.3493,4.9471 15.2383,4.9471 C15.1293,4.9471 15.0423,4.9451 14.9743,4.9391 C14.9063,4.9341 14.8533,4.9251 14.8153,4.9131 C14.7773,4.9011 14.7523,4.8881 14.7403,4.8711 C14.7293,4.8541 14.7263,4.8351 14.7313,4.8111 L15.1753,3.1351 L14.9553,3.1351 C14.8153,3.1351 14.6913,3.1481 14.5793,3.1761 C14.4703,3.2021 14.3673,3.2441 14.2723,3.3011 C14.1783,3.3571 14.0893,3.4281 14.0063,3.5161 C13.9223,3.6061 13.8413,3.7111 13.7573,3.8341 L13.1123,4.7881 C13.0933,4.8221 13.0683,4.8471 13.0393,4.8671 C13.0113,4.8851 12.9713,4.9011 12.9223,4.9131 C12.8713,4.9251 12.8053,4.9341 12.7243,4.9391 C12.6423,4.9451 12.5413,4.9471 12.4213,4.9471 C12.3103,4.9471 12.2203,4.9451 12.1493,4.9391 C12.0803,4.9341 12.0253,4.9261 11.9823,4.9161 C11.9413,4.9061 11.9123,4.8951 11.8983,4.8811 C11.8823,4.8671 11.8743,4.8501 11.8743,4.8301 C11.8743,4.8161 11.8763,4.7991 11.8823,4.7841 C11.8873,4.7671 11.8963,4.7481 11.9083,4.7261 C11.9193,4.7061 11.9363,4.6811 11.9553,4.6511 C11.9753,4.6221 12.0003,4.5881 12.0283,4.5491 L12.6343,3.7111 C12.7483,3.5561 12.8563,3.4241 12.9573,3.3151 C13.0593,3.2061 13.1603,3.1141 13.2603,3.0401 C13.3593,2.9661 13.4643,2.9041 13.5733,2.8551 C13.6813,2.8061 13.7983,2.7661 13.9243,2.7321 L13.9283,2.7251 C13.8353,2.7011 13.7503,2.6701 13.6773,2.6321 C13.6023,2.5931 13.5383,2.5401 13.4843,2.4741 C13.4293,2.4071 13.3823,2.3241 13.3433,2.2251 C13.3043,2.1271 13.2703,2.0061 13.2453,1.8631 L13.1123,1.1321 C13.1033,1.0951 13.0973,1.0551 13.0933,1.0111 C13.0893,0.9661 13.0863,0.9321 13.0863,0.9091 C13.0863,0.8791 13.0933,0.8511 13.1053,0.8281 C13.1183,0.8041 13.1473,0.7861 13.1913,0.7701 C13.2353,0.7551 13.2963,0.7441 13.3753,0.7381 C13.4543,0.7311 13.5583,0.7281 13.6873,0.7281 C13.8073,0.7281 13.9023,0.7301 13.9743,0.7361 C14.0453,0.7421 14.0993,0.7501 14.1363,0.7631 C14.1743,0.7731 14.1993,0.7901 14.2123,0.8111 C14.2243,0.8311 14.2333,0.8561 14.2353,0.8861 L14.3563,1.7641 C14.3733,1.8871 14.3993,1.9901 14.4343,2.0741 C14.4703,2.1581 14.5183,2.2251 14.5783,2.2781 C14.6383,2.3301 14.7143,2.3681 14.8053,2.3921 C14.8973,2.4151 15.0083,2.4281 15.1403,2.4281 L15.3623,2.4281 L15.7763,0.8601 C15.7823,0.8371 15.7953,0.8181 15.8173,0.8011 C15.8373,0.7851 15.8713,0.7711 15.9153,0.7601 C15.9593,0.7491 16.0173,0.7421 16.0923,0.7361 C16.1653,0.7301 16.2573,0.7281 16.3663,0.7281 C16.4743,0.7281 16.5653,0.7301 16.6353,0.7361 C16.7053,0.7421 16.7593,0.7491 16.7993,0.7601 C16.8373,0.7711 16.8623,0.7851 16.8733,0.8011 C16.8853,0.8181 16.8883,0.8371 16.8823,0.8601 L16.4683,2.4281 L16.6863,2.4281 C16.8103,2.4281 16.9253,2.4141 17.0273,2.3891 C17.1293,2.3641 17.2263,2.3241 17.3143,2.2701 C17.4013,2.2161 17.4853,2.1481 17.5643,2.0641 C17.6413,1.9801 17.7203,1.8791 17.7983,1.7611 L18.3883,0.8861 C18.4083,0.8561 18.4313,0.8311 18.4563,0.8111 C18.4833,0.7901 18.5183,0.7731 18.5653,0.7631 C18.6113,0.7501 18.6733,0.7421 18.7473,0.7361 C18.8243,0.7301 18.9213,0.7281 19.0443,0.7281 C19.1603,0.7281 19.2523,0.7301 19.3213,0.7361 C19.3903,0.7421 19.4443,0.7491 19.4833,0.7591 C19.5233,0.7691 19.5483,0.7801 19.5593,0.7931 C19.5703,0.8061 19.5763,0.8211 19.5763,0.8381 C19.5763,0.8641 19.5643,0.9001 19.5393,0.9471 C19.5153,0.9931 19.4773,1.0511 19.4253,1.1211 L18.9043,1.8511 C18.8033,1.9911 18.7083,2.1101 18.6163,2.2101 C18.5253,2.3111 18.4333,2.3971 18.3393,2.4681 C18.2473,2.5411 18.1513,2.5991 18.0523,2.6451 C17.9533,2.6901 17.8463,2.7271 17.7323,2.7571 L17.7283,2.7641 C17.8403,2.8001 17.9373,2.8421 18.0173,2.8891 C18.0993,2.9341 18.1713,2.9931 18.2313,3.0651 C18.2913,3.1351 18.3413,3.2221 18.3833,3.3261 C18.4243,3.4301 18.4593,3.5581 18.4883,3.7111 L18.6453,4.5261 C18.6573,4.5681 18.6663,4.6101 18.6713,4.6541 C18.6773,4.6981 18.6803,4.7331 18.6803,4.7601 Z M10.6803,4.8151 C10.6743,4.8361 10.6593,4.8551 10.6373,4.8731 C10.6143,4.8901 10.5793,4.9041 10.5333,4.9151 C10.4883,4.9251 10.4283,4.9341 10.3533,4.9391 C10.2793,4.9451 10.1873,4.9471 10.0783,4.9471 C9.9703,4.9471 9.8813,4.9451 9.8093,4.9391 C9.7373,4.9341 9.6833,4.9251 9.6443,4.9151 C9.6063,4.9041 9.5793,4.8901 9.5653,4.8731 C9.5523,4.8551 9.5493,4.8361 9.5583,4.8151 L10.0053,3.1221 L7.9323,3.1221 L7.4813,4.8151 C7.4773,4.8361 7.4623,4.8551 7.4393,4.8731 C7.4163,4.8901 7.3813,4.9041 7.3343,4.9151 C7.2873,4.9251 7.2273,4.9341 7.1543,4.9391 C7.0813,4.9451 6.9903,4.9471 6.8803,4.9471 C6.7693,4.9471 6.6803,4.9451 6.6103,4.9391 C6.5393,4.9341 6.4853,4.9251 6.4443,4.9151 C6.4053,4.9041 6.3783,4.8901 6.3643,4.8731 C6.3493,4.8551 6.3463,4.8361 6.3553,4.8151 L7.4083,0.8601 C7.4113,0.8401 7.4243,0.8201 7.4463,0.8021 C7.4703,0.7861 7.5043,0.7711 7.5493,0.7601 C7.5943,0.7501 7.6543,0.7421 7.7273,0.7361 C7.8023,0.7301 7.8933,0.7281 7.9993,0.7281 C8.1093,0.7281 8.2003,0.7301 8.2733,0.7361 C8.3453,0.7421 8.4003,0.7501 8.4413,0.7601 C8.4813,0.7711 8.5093,0.7861 8.5203,0.8021 C8.5333,0.8201 8.5383,0.8401 8.5323,0.8601 L8.1223,2.4011 L10.1953,2.4011 L10.6023,0.8601 C10.6083,0.8401 10.6233,0.8201 10.6463,0.8021 C10.6683,0.7861 10.7033,0.7711 10.7483,0.7601 C10.7943,0.7501 10.8543,0.7421 10.9283,0.7361 C11.0023,0.7301 11.0943,0.7281 11.2023,0.7281 C11.3103,0.7281 11.4013,0.7301 11.4733,0.7361 C11.5443,0.7421 11.6003,0.7501 11.6393,0.7601 C11.6803,0.7711 11.7073,0.7861 11.7203,0.8021 C11.7333,0.8201 11.7363,0.8401 11.7303,0.8601 L10.6803,4.8151 Z M4.8023,4.8181 C4.7963,4.8391 4.7833,4.8581 4.7603,4.8741 C4.7383,4.8911 4.7033,4.9041 4.6563,4.9151 C4.6093,4.9251 4.5493,4.9341 4.4763,4.9391 C4.4013,4.9451 4.3123,4.9471 4.2043,4.9471 C4.0913,4.9471 3.9993,4.9451 3.9293,4.9391 C3.8583,4.9341 3.8033,4.9251 3.7653,4.9151 C3.7253,4.9041 3.6993,4.8911 3.6863,4.8741 C3.6733,4.8581 3.6703,4.8391 3.6763,4.8181 L4.1553,3.0221 C4.1733,2.9571 4.1903,2.8901 4.2103,2.8181 C4.2283,2.7471 4.2483,2.6751 4.2683,2.6001 C4.2873,2.5261 4.3103,2.4521 4.3373,2.3771 C4.3623,2.3031 4.3873,2.2341 4.4103,2.1691 C4.2813,2.2981 4.1473,2.4291 4.0083,2.5601 C3.8673,2.6911 3.7303,2.8161 3.5953,2.9341 L1.3933,4.8221 C1.3643,4.8471 1.3353,4.8681 1.3023,4.8841 C1.2723,4.9011 1.2343,4.9131 1.1903,4.9231 C1.1463,4.9321 1.0933,4.9391 1.0333,4.9431 C0.9723,4.9461 0.8963,4.9471 0.8053,4.9471 C0.6923,4.9471 0.6023,4.9451 0.5333,4.9401 C0.4643,4.9361 0.4103,4.9281 0.3713,4.9181 C0.3333,4.9071 0.3083,4.8931 0.2963,4.8741 C0.2843,4.8551 0.2833,4.8321 0.2913,4.8051 L1.3453,0.8571 C1.3483,0.8361 1.3613,0.8181 1.3863,0.8011 C1.4093,0.7851 1.4463,0.7711 1.4933,0.7601 C1.5403,0.7501 1.5993,0.7421 1.6733,0.7361 C1.7463,0.7301 1.8373,0.7281 1.9453,0.7281 C2.0543,0.7281 2.1443,0.7301 2.2143,0.7361 C2.2833,0.7421 2.3383,0.7501 2.3783,0.7601 C2.4193,0.7711 2.4453,0.7851 2.4603,0.8011 C2.4743,0.8181 2.4793,0.8361 2.4733,0.8571 L1.9493,2.8091 C1.9363,2.8611 1.9183,2.9171 1.8993,2.9801 C1.8793,3.0421 1.8603,3.1051 1.8423,3.1681 C1.8253,3.2321 1.8073,3.2961 1.7873,3.3591 C1.7663,3.4231 1.7463,3.4811 1.7253,3.5351 L1.7343,3.5351 C1.7853,3.4791 1.8413,3.4211 1.9023,3.3591 C1.9643,3.2981 2.0283,3.2351 2.0933,3.1741 C2.1583,3.1111 2.2243,3.0501 2.2903,2.9931 C2.3563,2.9341 2.4173,2.8801 2.4743,2.8271 L4.7293,0.8741 C4.7643,0.8461 4.7983,0.8221 4.8303,0.8021 C4.8643,0.7831 4.9033,0.7681 4.9483,0.7571 C4.9943,0.7471 5.0483,0.7391 5.1093,0.7351 C5.1713,0.7301 5.2473,0.7281 5.3363,0.7281 C5.4473,0.7281 5.5363,0.7301 5.6073,0.7361 C5.6773,0.7421 5.7313,0.7501 5.7693,0.7601 C5.8073,0.7711 5.8333,0.7851 5.8453,0.8011 C5.8583,0.8181 5.8633,0.8361 5.8573,0.8571 L4.8023,4.8181 Z" id="Fill-12" fill="#0066AE" mask="url(#mask-2)"></path>
                </g>
                <path d="M148.8047,29.5459 L148.8007,29.5459 L147.5657,31.3199 L149.1217,31.3199 L148.8047,29.5459 Z M150.4897,32.6109 C150.5047,32.6899 150.5107,32.7499 150.5087,32.7949 C150.5077,32.8399 150.4887,32.8749 150.4507,32.8979 C150.4107,32.9199 150.3497,32.9339 150.2617,32.9399 C150.1737,32.9449 150.0537,32.9469 149.9017,32.9469 C149.7907,32.9469 149.7017,32.9459 149.6317,32.9429 C149.5627,32.9399 149.5087,32.9329 149.4707,32.9239 C149.4337,32.9159 149.4077,32.9029 149.3927,32.8849 C149.3777,32.8689 149.3697,32.8449 149.3667,32.8149 L149.2157,31.9749 L147.1387,31.9749 L146.5667,32.7949 C146.5457,32.8259 146.5237,32.8509 146.4977,32.8709 C146.4727,32.8919 146.4347,32.9069 146.3867,32.9189 C146.3377,32.9279 146.2727,32.9359 146.1917,32.9409 C146.1097,32.9449 146.0077,32.9469 145.8847,32.9469 C145.7527,32.9469 145.6487,32.9439 145.5757,32.9369 C145.5027,32.9309 145.4547,32.9149 145.4297,32.8909 C145.4057,32.8659 145.4037,32.8319 145.4207,32.7859 C145.4397,32.7399 145.4767,32.6809 145.5307,32.6049 L148.2177,28.8959 C148.2477,28.8589 148.2767,28.8299 148.3047,28.8079 C148.3337,28.7849 148.3747,28.7679 148.4287,28.7559 C148.4817,28.7439 148.5527,28.7359 148.6457,28.7329 C148.7357,28.7299 148.8547,28.7289 149.0027,28.7289 C149.1687,28.7289 149.3007,28.7299 149.3987,28.7329 C149.4947,28.7359 149.5717,28.7439 149.6257,28.7559 C149.6797,28.7679 149.7147,28.7859 149.7307,28.8089 C149.7487,28.8329 149.7597,28.8649 149.7657,28.9059 L150.4897,32.6109 Z M144.3607,32.8179 C144.3547,32.8389 144.3407,32.8579 144.3197,32.8749 C144.2977,32.8909 144.2637,32.9039 144.2177,32.9149 C144.1717,32.9249 144.1137,32.9339 144.0417,32.9399 C143.9687,32.9449 143.8777,32.9469 143.7657,32.9469 C143.6567,32.9469 143.5677,32.9449 143.4977,32.9399 C143.4257,32.9339 143.3707,32.9249 143.3307,32.9149 C143.2917,32.9039 143.2637,32.8909 143.2477,32.8749 C143.2327,32.8579 143.2287,32.8389 143.2367,32.8179 L144.1327,29.4559 L142.0637,29.4559 L141.1687,32.8179 C141.1637,32.8389 141.1497,32.8579 141.1257,32.8749 C141.1027,32.8909 141.0677,32.9039 141.0207,32.9149 C140.9737,32.9249 140.9127,32.9339 140.8377,32.9399 C140.7637,32.9449 140.6727,32.9469 140.5627,32.9469 C140.4527,32.9469 140.3627,32.9449 140.2917,32.9399 C140.2217,32.9339 140.1677,32.9249 140.1267,32.9149 C140.0877,32.9039 140.0607,32.8909 140.0477,32.8749 C140.0357,32.8579 140.0337,32.8389 140.0417,32.8179 L141.0517,29.0159 C141.0747,28.9259 141.1217,28.8589 141.1937,28.8149 C141.2667,28.7699 141.3517,28.7479 141.4507,28.7479 L145.1187,28.7479 C145.2207,28.7479 145.2957,28.7699 145.3407,28.8149 C145.3877,28.8589 145.3967,28.9259 145.3717,29.0159 L144.3607,32.8179 Z M138.5017,32.8119 C138.4937,32.8339 138.4797,32.8539 138.4627,32.8709 C138.4447,32.8889 138.4157,32.9029 138.3737,32.9139 C138.3327,32.9249 138.2757,32.9329 138.2027,32.9389 C138.1307,32.9439 138.0397,32.9469 137.9327,32.9469 C137.8237,32.9469 137.7357,32.9439 137.6687,32.9389 C137.5997,32.9329 137.5487,32.9249 137.5117,32.9139 C137.4747,32.9029 137.4517,32.8889 137.4417,32.8709 C137.4307,32.8539 137.4297,32.8339 137.4357,32.8119 L138.3327,29.4129 L138.3237,29.4129 L135.8057,32.8079 C135.7717,32.8629 135.7047,32.8999 135.6057,32.9189 C135.5077,32.9369 135.3667,32.9469 135.1857,32.9469 C135.0007,32.9469 134.8677,32.9339 134.7877,32.9089 C134.7057,32.8829 134.6647,32.8529 134.6617,32.8149 L134.0067,29.4089 L133.9977,29.4089 L133.0967,32.8119 C133.0907,32.8339 133.0787,32.8539 133.0597,32.8709 C133.0407,32.8889 133.0117,32.9029 132.9687,32.9139 C132.9277,32.9249 132.8727,32.9329 132.8027,32.9389 C132.7317,32.9439 132.6417,32.9469 132.5327,32.9469 C132.4247,32.9469 132.3357,32.9439 132.2687,32.9389 C132.1997,32.9329 132.1467,32.9249 132.1107,32.9139 C132.0727,32.9029 132.0487,32.8889 132.0367,32.8709 C132.0257,32.8539 132.0237,32.8339 132.0327,32.8119 L133.0157,29.0899 C133.0307,29.0369 133.0527,28.9879 133.0827,28.9449 C133.1127,28.9019 133.1507,28.8659 133.1947,28.8379 C133.2387,28.8079 133.2897,28.7859 133.3467,28.7699 C133.4047,28.7559 133.4667,28.7479 133.5327,28.7479 L134.2347,28.7479 C134.3607,28.7479 134.4667,28.7559 134.5547,28.7729 C134.6437,28.7889 134.7177,28.8169 134.7747,28.8549 C134.8317,28.8939 134.8757,28.9439 134.9047,29.0059 C134.9357,29.0689 134.9557,29.1439 134.9677,29.2319 L135.5057,31.7169 L135.5277,31.7169 L137.4327,29.2319 C137.4897,29.1479 137.5467,29.0759 137.6037,29.0149 C137.6607,28.9529 137.7237,28.9019 137.7927,28.8629 C137.8627,28.8229 137.9407,28.7939 138.0257,28.7759 C138.1097,28.7569 138.2107,28.7479 138.3277,28.7479 L139.1287,28.7479 C139.1997,28.7479 139.2617,28.7559 139.3127,28.7699 C139.3657,28.7859 139.4067,28.8079 139.4357,28.8379 C139.4657,28.8659 139.4857,28.9009 139.4907,28.9429 C139.4987,28.9849 139.4967,29.0339 139.4857,29.0869 L138.5017,32.8119 Z M130.1637,30.2259 C130.1637,30.0939 130.1447,29.9749 130.1057,29.8689 C130.0667,29.7619 130.0057,29.6719 129.9197,29.5989 C129.8347,29.5259 129.7217,29.4689 129.5827,29.4289 C129.4457,29.3899 129.2757,29.3699 129.0757,29.3699 C128.8267,29.3699 128.6087,29.4059 128.4197,29.4779 C128.2307,29.5499 128.0657,29.6439 127.9257,29.7609 C127.7867,29.8769 127.6677,30.0099 127.5737,30.1589 C127.4787,30.3089 127.4047,30.4609 127.3477,30.6149 C127.2887,30.7679 127.2497,30.9199 127.2247,31.0659 C127.1997,31.2119 127.1877,31.3399 127.1877,31.4489 C127.1877,31.5829 127.2067,31.7029 127.2467,31.8089 C127.2847,31.9139 127.3477,32.0029 127.4347,32.0739 C127.5217,32.1469 127.6357,32.2019 127.7727,32.2409 C127.9117,32.2789 128.0837,32.2989 128.2867,32.2989 C128.5327,32.2989 128.7487,32.2639 128.9377,32.1919 C129.1267,32.1219 129.2907,32.0279 129.4297,31.9139 C129.5667,31.7979 129.6837,31.6669 129.7777,31.5179 C129.8727,31.3689 129.9487,31.2179 130.0057,31.0659 C130.0627,30.9129 130.1037,30.7629 130.1267,30.6159 C130.1517,30.4699 130.1637,30.3389 130.1637,30.2259 Z M131.3577,30.1469 C131.3577,30.3369 131.3337,30.5389 131.2887,30.7539 C131.2437,30.9689 131.1687,31.1829 131.0677,31.3949 C130.9667,31.6059 130.8327,31.8089 130.6667,32.0029 C130.5017,32.1969 130.2997,32.3679 130.0627,32.5139 C129.8257,32.6619 129.5467,32.7799 129.2257,32.8679 C128.9057,32.9559 128.5417,32.9999 128.1327,32.9999 C127.7867,32.9999 127.4807,32.9709 127.2157,32.9129 C126.9507,32.8549 126.7267,32.7649 126.5457,32.6449 C126.3647,32.5249 126.2267,32.3729 126.1327,32.1899 C126.0407,32.0069 125.9937,31.7919 125.9937,31.5439 C125.9937,31.3419 126.0177,31.1309 126.0647,30.9109 C126.1127,30.6899 126.1877,30.4739 126.2927,30.2609 C126.3967,30.0499 126.5337,29.8479 126.7027,29.6559 C126.8707,29.4639 127.0737,29.2959 127.3107,29.1499 C127.5497,29.0039 127.8257,28.8879 128.1437,28.8029 C128.4607,28.7179 128.8217,28.6749 129.2247,28.6749 C129.5707,28.6749 129.8767,28.7049 130.1407,28.7649 C130.4047,28.8229 130.6277,28.9139 130.8087,29.0359 C130.9887,29.1569 131.1247,29.3099 131.2187,29.4959 C131.3107,29.6809 131.3577,29.8979 131.3577,30.1469 Z M124.8597,32.7669 C124.8597,32.8029 124.8507,32.8329 124.8317,32.8549 C124.8127,32.8779 124.7807,32.8959 124.7357,32.9099 C124.6897,32.9239 124.6267,32.9339 124.5507,32.9399 C124.4737,32.9449 124.3747,32.9469 124.2587,32.9469 C124.1357,32.9469 124.0387,32.9449 123.9697,32.9399 C123.8997,32.9339 123.8457,32.9239 123.8077,32.9119 C123.7677,32.8989 123.7437,32.8819 123.7297,32.8629 C123.7167,32.8429 123.7077,32.8189 123.7027,32.7889 L123.4917,31.8569 C123.4607,31.7209 123.4217,31.6069 123.3757,31.5159 C123.3307,31.4239 123.2707,31.3489 123.1987,31.2919 C123.1257,31.2349 123.0397,31.1949 122.9417,31.1709 C122.8437,31.1479 122.7267,31.1349 122.5937,31.1349 L122.3447,31.1349 L121.8987,32.8119 C121.8927,32.8349 121.8777,32.8549 121.8547,32.8709 C121.8307,32.8879 121.7977,32.9009 121.7487,32.9129 C121.7027,32.9249 121.6427,32.9339 121.5697,32.9399 C121.4957,32.9449 121.4057,32.9469 121.2957,32.9469 C121.1847,32.9469 121.0957,32.9449 121.0247,32.9399 C120.9547,32.9339 120.9007,32.9249 120.8597,32.9129 C120.8197,32.9009 120.7937,32.8879 120.7787,32.8709 C120.7647,32.8549 120.7617,32.8349 120.7707,32.8119 L121.8237,28.8599 C121.8267,28.8379 121.8397,28.8179 121.8647,28.8009 C121.8877,28.7849 121.9227,28.7719 121.9697,28.7599 C122.0167,28.7499 122.0767,28.7419 122.1497,28.7359 C122.2217,28.7309 122.3137,28.7289 122.4237,28.7289 C122.5337,28.7289 122.6237,28.7309 122.6947,28.7359 C122.7647,28.7419 122.8197,28.7499 122.8607,28.7599 C122.9007,28.7719 122.9287,28.7849 122.9397,28.8009 C122.9527,28.8179 122.9577,28.8379 122.9517,28.8599 L122.5337,30.4279 L122.7817,30.4279 C122.9067,30.4279 123.0207,30.4149 123.1217,30.3889 C123.2227,30.3639 123.3187,30.3229 123.4097,30.2669 C123.5007,30.2109 123.5897,30.1379 123.6777,30.0489 C123.7637,29.9609 123.8547,29.8499 123.9477,29.7189 L124.5447,28.8859 C124.5687,28.8569 124.5937,28.8309 124.6207,28.8109 C124.6507,28.7899 124.6897,28.7739 124.7397,28.7629 C124.7887,28.7509 124.8517,28.7419 124.9287,28.7359 C125.0057,28.7309 125.1057,28.7289 125.2267,28.7289 C125.3397,28.7289 125.4317,28.7309 125.5017,28.7359 C125.5737,28.7419 125.6277,28.7499 125.6637,28.7599 C125.7007,28.7719 125.7257,28.7829 125.7377,28.7979 C125.7487,28.8119 125.7537,28.8259 125.7537,28.8409 C125.7537,28.8739 125.7417,28.9099 125.7187,28.9519 C125.6937,28.9939 125.6527,29.0509 125.5957,29.1219 L125.0287,29.8629 C124.9237,30.0039 124.8227,30.1229 124.7297,30.2209 C124.6337,30.3189 124.5407,30.4009 124.4487,30.4679 C124.3547,30.5369 124.2607,30.5919 124.1647,30.6359 C124.0697,30.6799 123.9667,30.7159 123.8587,30.7439 L123.8587,30.7479 C123.9617,30.7839 124.0507,30.8259 124.1277,30.8709 C124.2037,30.9159 124.2727,30.9729 124.3317,31.0439 C124.3897,31.1129 124.4397,31.1989 124.4817,31.3019 C124.5257,31.4039 124.5667,31.5309 124.6067,31.6819 L124.8257,32.5489 C124.8387,32.5919 124.8497,32.6319 124.8537,32.6669 C124.8577,32.7029 124.8597,32.7349 124.8597,32.7669 Z M116.7017,29.4029 C116.5147,29.4029 116.3497,29.4199 116.2057,29.4529 C116.0607,29.4859 115.9377,29.5349 115.8397,29.5999 C115.7407,29.6639 115.6657,29.7429 115.6147,29.8369 C115.5637,29.9309 115.5367,30.0369 115.5367,30.1539 C115.5367,30.2239 115.5547,30.2859 115.5887,30.3409 C115.6237,30.3949 115.6727,30.4429 115.7407,30.4839 C115.8077,30.5249 115.8917,30.5569 115.9917,30.5789 C116.0917,30.6019 116.2087,30.6129 116.3437,30.6129 L117.0247,30.6129 L117.3457,29.4029 L116.7017,29.4029 Z M117.5677,32.8179 C117.5607,32.8399 117.5447,32.8589 117.5237,32.8749 C117.5017,32.8909 117.4697,32.9039 117.4257,32.9149 C117.3817,32.9259 117.3237,32.9339 117.2487,32.9399 C117.1757,32.9449 117.0847,32.9469 116.9767,32.9469 C116.8667,32.9469 116.7767,32.9449 116.7047,32.9399 C116.6327,32.9339 116.5757,32.9259 116.5367,32.9149 C116.4957,32.9039 116.4687,32.8909 116.4547,32.8749 C116.4397,32.8589 116.4357,32.8399 116.4417,32.8179 L116.8557,31.2539 L116.4277,31.2539 C116.2947,31.2539 116.1747,31.2679 116.0707,31.2949 C115.9677,31.3219 115.8727,31.3609 115.7877,31.4129 C115.7027,31.4649 115.6237,31.5289 115.5507,31.6059 C115.4767,31.6819 115.4057,31.7709 115.3357,31.8729 L114.6847,32.7989 C114.6637,32.8249 114.6387,32.8479 114.6097,32.8669 C114.5807,32.8869 114.5397,32.9019 114.4887,32.9129 C114.4367,32.9249 114.3707,32.9339 114.2887,32.9399 C114.2087,32.9449 114.1107,32.9469 113.9937,32.9469 C113.8607,32.9469 113.7567,32.9449 113.6777,32.9409 C113.5997,32.9359 113.5407,32.9309 113.4977,32.9249 C113.4537,32.9189 113.4257,32.9089 113.4147,32.8979 C113.4007,32.8849 113.3937,32.8709 113.3937,32.8549 C113.3937,32.8299 113.4037,32.8019 113.4217,32.7679 C113.4407,32.7339 113.4787,32.6809 113.5357,32.6099 L114.2207,31.7139 C114.3027,31.6099 114.3847,31.5169 114.4637,31.4319 C114.5437,31.3479 114.6257,31.2749 114.7087,31.2159 C114.7927,31.1549 114.8757,31.1049 114.9597,31.0649 C115.0417,31.0249 115.1257,30.9959 115.2157,30.9759 C115.0837,30.9569 114.9647,30.9239 114.8617,30.8779 C114.7557,30.8309 114.6687,30.7749 114.5947,30.7099 C114.5217,30.6439 114.4667,30.5689 114.4287,30.4849 C114.3887,30.4009 114.3697,30.3119 114.3697,30.2169 C114.3697,29.9759 114.4267,29.7639 114.5407,29.5819 C114.6567,29.3989 114.8177,29.2449 115.0247,29.1209 C115.2327,28.9969 115.4797,28.9049 115.7687,28.8419 C116.0567,28.7789 116.3727,28.7479 116.7167,28.7479 L118.3197,28.7479 C118.3657,28.7479 118.4057,28.7529 118.4427,28.7629 C118.4807,28.7729 118.5097,28.7889 118.5337,28.8109 C118.5557,28.8339 118.5717,28.8619 118.5807,28.8949 C118.5887,28.9289 118.5877,28.9689 118.5757,29.0159 L117.5677,32.8179 Z M110.9867,29.5459 L110.9817,29.5459 L109.7477,31.3199 L111.3037,31.3199 L110.9867,29.5459 Z M112.6717,32.6109 C112.6867,32.6899 112.6927,32.7499 112.6907,32.7949 C112.6897,32.8399 112.6707,32.8749 112.6327,32.8979 C112.5927,32.9199 112.5317,32.9339 112.4437,32.9399 C112.3557,32.9449 112.2357,32.9469 112.0837,32.9469 C111.9727,32.9469 111.8837,32.9459 111.8127,32.9429 C111.7447,32.9399 111.6907,32.9329 111.6527,32.9239 C111.6157,32.9159 111.5897,32.9029 111.5747,32.8849 C111.5597,32.8689 111.5507,32.8449 111.5487,32.8149 L111.3977,31.9749 L109.3197,31.9749 L108.7477,32.7949 C108.7277,32.8259 108.7057,32.8509 108.6797,32.8709 C108.6547,32.8919 108.6167,32.9069 108.5687,32.9189 C108.5197,32.9279 108.4537,32.9359 108.3737,32.9409 C108.2917,32.9449 108.1887,32.9469 108.0667,32.9469 C107.9347,32.9469 107.8307,32.9439 107.7577,32.9369 C107.6847,32.9309 107.6367,32.9149 107.6117,32.8909 C107.5877,32.8659 107.5847,32.8319 107.6027,32.7859 C107.6217,32.7399 107.6587,32.6809 107.7127,32.6049 L110.3997,28.8959 C110.4287,28.8589 110.4587,28.8299 110.4857,28.8079 C110.5157,28.7849 110.5567,28.7679 110.6107,28.7559 C110.6637,28.7439 110.7347,28.7359 110.8267,28.7329 C110.9177,28.7299 111.0357,28.7289 111.1837,28.7289 C111.3507,28.7289 111.4827,28.7299 111.5807,28.7329 C111.6767,28.7359 111.7527,28.7439 111.8077,28.7559 C111.8617,28.7679 111.8967,28.7859 111.9127,28.8089 C111.9297,28.8329 111.9417,28.8649 111.9477,28.9059 L112.6717,32.6109 Z M106.5397,32.8149 C106.5337,32.8359 106.5187,32.8559 106.4977,32.8739 C106.4737,32.8899 106.4387,32.9039 106.3937,32.9149 C106.3477,32.9249 106.2877,32.9339 106.2137,32.9399 C106.1387,32.9449 106.0467,32.9469 105.9387,32.9469 C105.8297,32.9469 105.7407,32.9449 105.6697,32.9399 C105.5977,32.9339 105.5437,32.9249 105.5037,32.9149 C105.4657,32.9039 105.4397,32.8899 105.4247,32.8739 C105.4117,32.8559 105.4087,32.8359 105.4177,32.8149 L105.8657,31.1219 L103.7917,31.1219 L103.3417,32.8149 C103.3367,32.8359 103.3227,32.8559 103.2987,32.8739 C103.2757,32.8899 103.2407,32.9039 103.1937,32.9149 C103.1467,32.9249 103.0867,32.9339 103.0137,32.9399 C102.9407,32.9449 102.8497,32.9469 102.7397,32.9469 C102.6287,32.9469 102.5397,32.9449 102.4697,32.9399 C102.3997,32.9339 102.3457,32.9249 102.3047,32.9149 C102.2647,32.9039 102.2387,32.8899 102.2237,32.8739 C102.2087,32.8559 102.2067,32.8359 102.2147,32.8149 L103.2687,28.8599 C103.2717,28.8399 103.2847,28.8199 103.3067,28.8019 C103.3297,28.7859 103.3637,28.7719 103.4087,28.7599 C103.4537,28.7509 103.5137,28.7419 103.5877,28.7359 C103.6617,28.7309 103.7527,28.7289 103.8597,28.7289 C103.9687,28.7289 104.0597,28.7309 104.1327,28.7359 C104.2047,28.7419 104.2607,28.7509 104.3017,28.7599 C104.3407,28.7719 104.3687,28.7859 104.3807,28.8019 C104.3937,28.8199 104.3977,28.8399 104.3917,28.8599 L103.9827,30.4009 L106.0557,30.4009 L106.4617,28.8599 C106.4677,28.8399 106.4827,28.8199 106.5057,28.8019 C106.5277,28.7859 106.5627,28.7719 106.6087,28.7599 C106.6537,28.7509 106.7137,28.7419 106.7887,28.7359 C106.8617,28.7309 106.9537,28.7289 107.0617,28.7289 C107.1707,28.7289 107.2607,28.7309 107.3327,28.7359 C107.4047,28.7419 107.4597,28.7509 107.4997,28.7599 C107.5407,28.7719 107.5667,28.7859 107.5797,28.8019 C107.5927,28.8199 107.5957,28.8399 107.5897,28.8599 L106.5397,32.8149 Z M100.2787,31.4329 C100.2787,31.3469 100.2507,31.2639 100.1967,31.1859 C100.1427,31.1079 100.0517,31.0469 99.9237,31.0039 C99.8907,30.9939 99.8557,30.9839 99.8177,30.9779 C99.7787,30.9699 99.7347,30.9629 99.6847,30.9579 C99.6347,30.9519 99.5767,30.9489 99.5107,30.9469 C99.4447,30.9449 99.3687,30.9429 99.2837,30.9429 L98.6397,30.9429 L98.2877,32.2659 L98.9557,32.2659 C99.0437,32.2659 99.1217,32.2649 99.1887,32.2619 C99.2557,32.2579 99.3177,32.2529 99.3717,32.2469 C99.4257,32.2409 99.4737,32.2319 99.5197,32.2229 C99.5637,32.2129 99.6087,32.2019 99.6537,32.1889 C99.7447,32.1619 99.8297,32.1229 99.9057,32.0729 C99.9827,32.0239 100.0487,31.9659 100.1057,31.9009 C100.1617,31.8349 100.2047,31.7619 100.2337,31.6819 C100.2637,31.6019 100.2787,31.5189 100.2787,31.4329 Z M101.4547,31.3239 C101.4547,31.4079 101.4447,31.4979 101.4227,31.5949 C101.4007,31.6919 101.3657,31.7909 101.3157,31.8909 C101.2667,31.9929 101.2007,32.0929 101.1187,32.1919 C101.0377,32.2909 100.9367,32.3829 100.8167,32.4689 C100.6977,32.5549 100.5547,32.6309 100.3897,32.6969 C100.2257,32.7619 100.0407,32.8129 99.8307,32.8469 C99.6837,32.8749 99.5207,32.8959 99.3467,32.9069 C99.1727,32.9209 98.9777,32.9269 98.7647,32.9269 L97.3377,32.9269 C97.2917,32.9269 97.2487,32.9229 97.2077,32.9129 C97.1687,32.9029 97.1347,32.8869 97.1087,32.8639 C97.0837,32.8409 97.0647,32.8139 97.0557,32.7809 C97.0457,32.7479 97.0457,32.7069 97.0577,32.6589 L98.0667,28.8579 C98.0697,28.8369 98.0827,28.8179 98.1077,28.8009 C98.1327,28.7849 98.1677,28.7719 98.2157,28.7599 C98.2627,28.7509 98.3247,28.7419 98.3977,28.7359 C98.4707,28.7309 98.5627,28.7289 98.6707,28.7289 C98.7787,28.7289 98.8687,28.7309 98.9367,28.7359 C99.0057,28.7419 99.0617,28.7509 99.1007,28.7599 C99.1407,28.7719 99.1667,28.7849 99.1817,28.8009 C99.1957,28.8179 99.2007,28.8369 99.1947,28.8579 L98.8157,30.2819 L99.4927,30.2819 C99.6047,30.2819 99.7037,30.2829 99.7927,30.2859 C99.8807,30.2879 99.9627,30.2909 100.0377,30.2969 C100.1107,30.3019 100.1797,30.3089 100.2407,30.3169 C100.3017,30.3239 100.3607,30.3339 100.4177,30.3459 C100.6007,30.3839 100.7587,30.4359 100.8887,30.5029 C101.0207,30.5709 101.1287,30.6479 101.2137,30.7339 C101.2967,30.8199 101.3587,30.9139 101.3967,31.0159 C101.4357,31.1189 101.4547,31.2209 101.4547,31.3239 Z M95.4647,32.8179 C95.4607,32.8389 95.4457,32.8579 95.4247,32.8749 C95.4037,32.8909 95.3697,32.9039 95.3227,32.9149 C95.2757,32.9249 95.2157,32.9339 95.1427,32.9399 C95.0697,32.9449 94.9807,32.9469 94.8747,32.9469 C94.7627,32.9469 94.6707,32.9449 94.5987,32.9399 C94.5257,32.9339 94.4697,32.9249 94.4287,32.9149 C94.3897,32.9039 94.3617,32.8909 94.3487,32.8749 C94.3367,32.8579 94.3337,32.8389 94.3427,32.8179 L95.2377,29.4419 L94.0497,29.4419 C93.8437,29.9399 93.6507,30.3739 93.4737,30.7429 C93.2967,31.1119 93.1257,31.4269 92.9597,31.6899 C92.7957,31.9509 92.6337,32.1659 92.4727,32.3349 C92.3117,32.5019 92.1467,32.6339 91.9737,32.7309 C91.8027,32.8279 91.6227,32.8959 91.4357,32.9319 C91.2487,32.9679 91.0437,32.9869 90.8197,32.9869 C90.7347,32.9869 90.6787,32.9759 90.6527,32.9529 C90.6247,32.9309 90.6117,32.8939 90.6117,32.8449 C90.6117,32.8279 90.6147,32.7989 90.6207,32.7609 C90.6267,32.7219 90.6357,32.6809 90.6457,32.6349 C90.6577,32.5899 90.6717,32.5429 90.6907,32.4919 C90.7097,32.4419 90.7307,32.3959 90.7557,32.3569 C90.7787,32.3169 90.8067,32.2849 90.8357,32.2579 C90.8647,32.2329 90.8987,32.2199 90.9347,32.2199 C91.0247,32.2199 91.1137,32.2069 91.2017,32.1789 C91.2907,32.1509 91.3827,32.0989 91.4777,32.0189 C91.5747,31.9399 91.6767,31.8289 91.7847,31.6839 C91.8937,31.5399 92.0137,31.3499 92.1437,31.1139 C92.2737,30.8789 92.4177,30.5909 92.5737,30.2539 C92.7317,29.9149 92.9077,29.5129 93.1017,29.0459 C93.1177,29.0029 93.1367,28.9619 93.1587,28.9239 C93.1807,28.8869 93.2077,28.8549 93.2377,28.8289 C93.2697,28.8029 93.3067,28.7829 93.3487,28.7689 C93.3927,28.7549 93.4447,28.7479 93.5047,28.7479 L96.2237,28.7479 C96.3267,28.7479 96.4007,28.7699 96.4467,28.8149 C96.4927,28.8589 96.5017,28.9259 96.4767,29.0159 L95.4647,32.8179 Z M90.9157,28.8719 C90.9157,28.8849 90.9137,28.9069 90.9097,28.9399 C90.9057,28.9719 90.8977,29.0079 90.8887,29.0479 C90.8817,29.0879 90.8697,29.1289 90.8557,29.1719 C90.8407,29.2169 90.8237,29.2549 90.8017,29.2919 C90.7807,29.3269 90.7547,29.3569 90.7257,29.3809 C90.6947,29.4039 90.6627,29.4159 90.6287,29.4159 L88.6477,29.4159 L88.3767,30.4349 L90.0577,30.4349 C90.0977,30.4349 90.1267,30.4449 90.1427,30.4659 C90.1607,30.4879 90.1697,30.5179 90.1697,30.5569 C90.1697,30.5719 90.1677,30.5949 90.1637,30.6259 C90.1587,30.6569 90.1517,30.6929 90.1427,30.7329 C90.1357,30.7729 90.1237,30.8129 90.1097,30.8529 C90.0947,30.8939 90.0767,30.9319 90.0547,30.9669 C90.0347,31.0009 90.0087,31.0279 89.9807,31.0499 C89.9517,31.0709 89.9207,31.0829 89.8857,31.0829 L88.2057,31.0829 L87.8927,32.2589 L89.8997,32.2589 C89.9337,32.2589 89.9597,32.2709 89.9767,32.2939 C89.9937,32.3159 90.0027,32.3489 90.0027,32.3929 C90.0027,32.4069 90.0007,32.4309 89.9977,32.4629 C89.9957,32.4969 89.9897,32.5329 89.9787,32.5719 C89.9687,32.6119 89.9577,32.6529 89.9427,32.6939 C89.9277,32.7339 89.9107,32.7729 89.8897,32.8099 C89.8677,32.8449 89.8427,32.8739 89.8157,32.8959 C89.7857,32.9159 89.7537,32.9269 89.7177,32.9269 L86.9287,32.9269 C86.8837,32.9269 86.8407,32.9229 86.8047,32.9129 C86.7667,32.9029 86.7357,32.8869 86.7117,32.8639 C86.6877,32.8409 86.6717,32.8139 86.6627,32.7809 C86.6537,32.7469 86.6547,32.7069 86.6667,32.6589 L87.6327,29.0159 C87.6587,28.9209 87.7097,28.8529 87.7887,28.8109 C87.8667,28.7689 87.9547,28.7479 88.0497,28.7479 L90.8047,28.7479 C90.8787,28.7479 90.9157,28.7889 90.9157,28.8719 Z M86.6617,28.8839 C86.6617,28.8989 86.6587,28.9229 86.6547,28.9569 C86.6497,28.9899 86.6427,29.0269 86.6337,29.0679 C86.6237,29.1089 86.6107,29.1509 86.5947,29.1959 C86.5797,29.2399 86.5607,29.2799 86.5387,29.3169 C86.5187,29.3529 86.4917,29.3829 86.4627,29.4069 C86.4317,29.4299 86.3997,29.4419 86.3657,29.4419 L84.9767,29.4419 L84.0797,32.8119 C84.0707,32.8329 84.0557,32.8529 84.0327,32.8699 C84.0107,32.8869 83.9757,32.9009 83.9287,32.9119 C83.8807,32.9219 83.8207,32.9309 83.7487,32.9369 C83.6757,32.9439 83.5837,32.9469 83.4727,32.9469 C83.3637,32.9469 83.2737,32.9439 83.2017,32.9369 C83.1297,32.9309 83.0757,32.9219 83.0367,32.9119 C82.9987,32.9009 82.9717,32.8869 82.9587,32.8699 C82.9467,32.8529 82.9427,32.8329 82.9487,32.8119 L83.8437,29.4419 L82.4627,29.4419 C82.4207,29.4419 82.3907,29.4299 82.3747,29.4069 C82.3587,29.3829 82.3517,29.3509 82.3517,29.3099 C82.3517,29.2929 82.3527,29.2669 82.3577,29.2339 C82.3617,29.2009 82.3697,29.1639 82.3797,29.1209 C82.3897,29.0789 82.4017,29.0359 82.4177,28.9919 C82.4337,28.9479 82.4527,28.9079 82.4747,28.8709 C82.4977,28.8339 82.5227,28.8039 82.5517,28.7819 C82.5797,28.7589 82.6117,28.7479 82.6457,28.7479 L86.5537,28.7479 C86.5887,28.7479 86.6147,28.7599 86.6337,28.7829 C86.6517,28.8079 86.6617,28.8409 86.6617,28.8839 Z M80.3947,32.8179 C80.3887,32.8389 80.3757,32.8579 80.3527,32.8749 C80.3307,32.8909 80.2957,32.9039 80.2487,32.9149 C80.2017,32.9249 80.1417,32.9339 80.0687,32.9399 C79.9937,32.9449 79.9047,32.9469 79.7967,32.9469 C79.6837,32.9469 79.5917,32.9449 79.5217,32.9399 C79.4517,32.9339 79.3957,32.9249 79.3577,32.9149 C79.3177,32.9039 79.2917,32.8909 79.2787,32.8749 C79.2657,32.8579 79.2627,32.8389 79.2687,32.8179 L79.7477,31.0219 C79.7657,30.9569 79.7837,30.8899 79.8027,30.8179 C79.8217,30.7479 79.8407,30.6749 79.8607,30.6009 C79.8797,30.5259 79.9037,30.4519 79.9297,30.3769 C79.9547,30.3029 79.9797,30.2339 80.0027,30.1689 C79.8737,30.2979 79.7397,30.4289 79.6007,30.5599 C79.4597,30.6909 79.3227,30.8159 79.1877,30.9349 L76.9857,32.8219 C76.9567,32.8469 76.9277,32.8679 76.8957,32.8839 C76.8647,32.9009 76.8267,32.9129 76.7827,32.9229 C76.7387,32.9329 76.6857,32.9399 76.6257,32.9429 C76.5647,32.9459 76.4887,32.9469 76.3977,32.9469 C76.2857,32.9469 76.1947,32.9449 76.1257,32.9409 C76.0567,32.9359 76.0027,32.9279 75.9637,32.9189 C75.9257,32.9069 75.9007,32.8929 75.8887,32.8749 C75.8767,32.8559 75.8757,32.8329 75.8847,32.8049 L76.9377,28.8579 C76.9407,28.8369 76.9537,28.8179 76.9787,28.8009 C77.0017,28.7849 77.0387,28.7719 77.0857,28.7599 C77.1327,28.7509 77.1927,28.7419 77.2657,28.7359 C77.3387,28.7309 77.4297,28.7289 77.5377,28.7289 C77.6477,28.7289 77.7367,28.7309 77.8067,28.7359 C77.8757,28.7419 77.9307,28.7509 77.9707,28.7599 C78.0117,28.7719 78.0377,28.7849 78.0527,28.8009 C78.0667,28.8179 78.0717,28.8369 78.0657,28.8579 L77.5417,30.8089 C77.5287,30.8609 77.5117,30.9169 77.4927,30.9799 C77.4717,31.0429 77.4527,31.1059 77.4347,31.1689 C77.4177,31.2329 77.3997,31.2959 77.3797,31.3589 C77.3587,31.4229 77.3387,31.4819 77.3177,31.5349 L77.3267,31.5349 C77.3777,31.4789 77.4337,31.4209 77.4947,31.3589 C77.5567,31.2979 77.6207,31.2349 77.6857,31.1739 C77.7507,31.1109 77.8167,31.0499 77.8827,30.9929 C77.9487,30.9349 78.0097,30.8799 78.0667,30.8279 L80.3217,28.8739 C80.3567,28.8459 80.3907,28.8219 80.4227,28.8019 C80.4557,28.7829 80.4957,28.7679 80.5417,28.7569 C80.5867,28.7469 80.6407,28.7389 80.7017,28.7349 C80.7637,28.7309 80.8397,28.7289 80.9287,28.7289 C81.0397,28.7289 81.1297,28.7309 81.1997,28.7359 C81.2697,28.7419 81.3237,28.7509 81.3617,28.7599 C81.3997,28.7719 81.4267,28.7849 81.4377,28.8009 C81.4507,28.8179 81.4557,28.8369 81.4497,28.8579 L80.3947,32.8179 Z M74.0197,30.2259 C74.0197,30.0939 74.0007,29.9749 73.9617,29.8689 C73.9227,29.7619 73.8617,29.6719 73.7757,29.5989 C73.6907,29.5259 73.5777,29.4689 73.4387,29.4289 C73.3017,29.3899 73.1317,29.3699 72.9317,29.3699 C72.6827,29.3699 72.4647,29.4059 72.2757,29.4779 C72.0867,29.5499 71.9217,29.6439 71.7817,29.7609 C71.6427,29.8769 71.5237,30.0099 71.4307,30.1589 C71.3347,30.3089 71.2607,30.4609 71.2037,30.6149 C71.1447,30.7679 71.1057,30.9199 71.0807,31.0659 C71.0557,31.2119 71.0437,31.3399 71.0437,31.4489 C71.0437,31.5829 71.0627,31.7029 71.1027,31.8089 C71.1407,31.9139 71.2037,32.0029 71.2917,32.0739 C71.3777,32.1469 71.4917,32.2019 71.6287,32.2409 C71.7687,32.2789 71.9397,32.2989 72.1427,32.2989 C72.3887,32.2989 72.6047,32.2639 72.7937,32.1919 C72.9827,32.1219 73.1467,32.0279 73.2857,31.9139 C73.4227,31.7979 73.5397,31.6669 73.6337,31.5179 C73.7287,31.3689 73.8047,31.2179 73.8617,31.0659 C73.9187,30.9129 73.9597,30.7629 73.9837,30.6159 C74.0077,30.4699 74.0197,30.3389 74.0197,30.2259 Z M75.2137,30.1469 C75.2137,30.3369 75.1897,30.5389 75.1447,30.7539 C75.0997,30.9689 75.0247,31.1829 74.9237,31.3949 C74.8227,31.6059 74.6887,31.8089 74.5227,32.0029 C74.3577,32.1969 74.1557,32.3679 73.9187,32.5139 C73.6817,32.6619 73.4027,32.7799 73.0817,32.8679 C72.7617,32.9559 72.3977,32.9999 71.9887,32.9999 C71.6427,32.9999 71.3367,32.9709 71.0717,32.9129 C70.8067,32.8549 70.5827,32.7649 70.4017,32.6449 C70.2207,32.5249 70.0827,32.3729 69.9887,32.1899 C69.8967,32.0069 69.8497,31.7919 69.8497,31.5439 C69.8497,31.3419 69.8737,31.1309 69.9207,30.9109 C69.9687,30.6899 70.0437,30.4739 70.1487,30.2609 C70.2527,30.0499 70.3897,29.8479 70.5587,29.6559 C70.7267,29.4639 70.9297,29.2959 71.1667,29.1499 C71.4057,29.0039 71.6817,28.8879 71.9997,28.8029 C72.3167,28.7179 72.6787,28.6749 73.0807,28.6749 C73.4277,28.6749 73.7327,28.7049 73.9967,28.7649 C74.2607,28.8229 74.4837,28.9139 74.6647,29.0359 C74.8447,29.1569 74.9807,29.3099 75.0747,29.4959 C75.1667,29.6809 75.2137,29.8979 75.2137,30.1469 Z" id="Fill-15" fill="#0066AE"></path>
                <path d="M166.4537,29.4028 C166.2667,29.4028 166.1007,29.4198 165.9577,29.4528 C165.8127,29.4858 165.6897,29.5348 165.5917,29.5998 C165.4927,29.6638 165.4177,29.7428 165.3667,29.8368 C165.3157,29.9308 165.2887,30.0368 165.2887,30.1538 C165.2887,30.2238 165.3067,30.2858 165.3407,30.3408 C165.3757,30.3948 165.4247,30.4438 165.4927,30.4838 C165.5597,30.5248 165.6427,30.5568 165.7437,30.5788 C165.8437,30.6018 165.9607,30.6128 166.0957,30.6128 L166.7767,30.6128 L167.0977,29.4028 L166.4537,29.4028 Z M167.3197,32.8188 C167.3127,32.8408 167.2967,32.8588 167.2757,32.8748 C167.2537,32.8908 167.2217,32.9038 167.1777,32.9148 C167.1337,32.9258 167.0757,32.9338 167.0007,32.9398 C166.9277,32.9448 166.8367,32.9468 166.7287,32.9468 C166.6187,32.9468 166.5287,32.9448 166.4567,32.9398 C166.3847,32.9338 166.3277,32.9258 166.2887,32.9148 C166.2477,32.9038 166.2207,32.8908 166.2067,32.8748 C166.1917,32.8588 166.1877,32.8408 166.1937,32.8188 L166.6077,31.2548 L166.1797,31.2548 C166.0467,31.2548 165.9267,31.2678 165.8227,31.2948 C165.7197,31.3218 165.6247,31.3608 165.5397,31.4128 C165.4547,31.4648 165.3757,31.5288 165.3027,31.6058 C165.2287,31.6818 165.1577,31.7708 165.0877,31.8728 L164.4367,32.7988 C164.4157,32.8248 164.3907,32.8478 164.3617,32.8668 C164.3327,32.8868 164.2917,32.9018 164.2397,32.9128 C164.1887,32.9248 164.1227,32.9338 164.0417,32.9398 C163.9607,32.9448 163.8627,32.9468 163.7457,32.9468 C163.6127,32.9468 163.5087,32.9448 163.4297,32.9408 C163.3517,32.9358 163.2917,32.9308 163.2497,32.9248 C163.2057,32.9188 163.1777,32.9088 163.1667,32.8978 C163.1527,32.8848 163.1457,32.8708 163.1457,32.8548 C163.1457,32.8298 163.1557,32.8018 163.1737,32.7678 C163.1927,32.7338 163.2307,32.6808 163.2877,32.6098 L163.9727,31.7138 C164.0547,31.6108 164.1367,31.5168 164.2157,31.4318 C164.2957,31.3478 164.3777,31.2758 164.4607,31.2158 C164.5447,31.1548 164.6277,31.1048 164.7117,31.0648 C164.7927,31.0248 164.8777,30.9958 164.9677,30.9758 C164.8357,30.9568 164.7167,30.9238 164.6127,30.8778 C164.5077,30.8308 164.4197,30.7748 164.3467,30.7098 C164.2737,30.6438 164.2187,30.5688 164.1807,30.4848 C164.1407,30.4018 164.1217,30.3118 164.1217,30.2168 C164.1217,29.9758 164.1787,29.7638 164.2927,29.5818 C164.4087,29.3988 164.5697,29.2448 164.7767,29.1208 C164.9847,28.9968 165.2317,28.9048 165.5207,28.8418 C165.8087,28.7788 166.1247,28.7478 166.4687,28.7478 L168.0717,28.7478 C168.1177,28.7478 168.1577,28.7528 168.1947,28.7628 C168.2327,28.7728 168.2617,28.7888 168.2857,28.8108 C168.3077,28.8338 168.3237,28.8618 168.3317,28.8948 C168.3407,28.9288 168.3397,28.9688 168.3277,29.0158 L167.3197,32.8188 Z M161.9457,32.8188 C161.9397,32.8388 161.9267,32.8578 161.9027,32.8748 C161.8807,32.8908 161.8457,32.9038 161.7987,32.9148 C161.7527,32.9248 161.6927,32.9338 161.6187,32.9398 C161.5447,32.9448 161.4557,32.9468 161.3467,32.9468 C161.2347,32.9468 161.1427,32.9448 161.0717,32.9398 C161.0017,32.9338 160.9457,32.9248 160.9087,32.9148 C160.8687,32.9038 160.8427,32.8908 160.8287,32.8748 C160.8157,32.8578 160.8127,32.8388 160.8187,32.8188 L161.2987,31.0218 C161.3167,30.9568 161.3337,30.8898 161.3527,30.8178 C161.3717,30.7478 161.3907,30.6748 161.4117,30.6008 C161.4307,30.5258 161.4537,30.4518 161.4797,30.3768 C161.5047,30.3028 161.5297,30.2338 161.5537,30.1688 C161.4247,30.2978 161.2897,30.4288 161.1507,30.5598 C161.0107,30.6908 160.8727,30.8158 160.7387,30.9348 L158.5367,32.8218 C158.5077,32.8468 158.4777,32.8678 158.4457,32.8838 C158.4147,32.9008 158.3767,32.9128 158.3337,32.9228 C158.2897,32.9328 158.2367,32.9398 158.1767,32.9428 C158.1147,32.9458 158.0397,32.9468 157.9487,32.9468 C157.8357,32.9468 157.7447,32.9448 157.6767,32.9408 C157.6077,32.9358 157.5537,32.9278 157.5137,32.9188 C157.4757,32.9068 157.4507,32.8928 157.4397,32.8748 C157.4277,32.8558 157.4267,32.8328 157.4347,32.8048 L158.4887,28.8578 C158.4917,28.8368 158.5047,28.8178 158.5297,28.8008 C158.5527,28.7848 158.5897,28.7718 158.6357,28.7598 C158.6827,28.7508 158.7427,28.7418 158.8157,28.7358 C158.8887,28.7308 158.9797,28.7288 159.0877,28.7288 C159.1977,28.7288 159.2867,28.7308 159.3577,28.7358 C159.4257,28.7418 159.4817,28.7508 159.5217,28.7598 C159.5617,28.7718 159.5887,28.7848 159.6027,28.8008 C159.6177,28.8178 159.6217,28.8368 159.6167,28.8578 L159.0927,30.8088 C159.0797,30.8608 159.0617,30.9168 159.0427,30.9798 C159.0227,31.0428 159.0037,31.1058 158.9857,31.1688 C158.9687,31.2328 158.9507,31.2968 158.9297,31.3588 C158.9097,31.4228 158.8887,31.4818 158.8687,31.5348 L158.8777,31.5348 C158.9287,31.4788 158.9847,31.4208 159.0457,31.3588 C159.1077,31.2988 159.1717,31.2358 159.2357,31.1738 C159.3017,31.1108 159.3677,31.0498 159.4337,30.9928 C159.4997,30.9348 159.5607,30.8798 159.6177,30.8278 L161.8727,28.8738 C161.9077,28.8458 161.9407,28.8218 161.9737,28.8018 C162.0067,28.7828 162.0467,28.7678 162.0917,28.7568 C162.1367,28.7468 162.1907,28.7388 162.2527,28.7348 C162.3137,28.7308 162.3907,28.7288 162.4797,28.7288 C162.5907,28.7288 162.6797,28.7308 162.7497,28.7358 C162.8207,28.7418 162.8747,28.7508 162.9127,28.7598 C162.9507,28.7718 162.9767,28.7848 162.9887,28.8008 C163.0017,28.8178 163.0057,28.8368 163.0007,28.8578 L161.9457,32.8188 Z M155.8897,32.8148 C155.8837,32.8358 155.8687,32.8558 155.8467,32.8738 C155.8237,32.8898 155.7887,32.9038 155.7427,32.9148 C155.6977,32.9248 155.6377,32.9338 155.5627,32.9398 C155.4887,32.9448 155.3967,32.9468 155.2877,32.9468 C155.1797,32.9468 155.0907,32.9448 155.0187,32.9398 C154.9467,32.9338 154.8927,32.9248 154.8537,32.9148 C154.8157,32.9038 154.7887,32.8898 154.7747,32.8738 C154.7617,32.8558 154.7587,32.8358 154.7677,32.8148 L155.2147,31.1218 L153.1417,31.1218 L152.6907,32.8148 C152.6867,32.8358 152.6727,32.8558 152.6487,32.8738 C152.6257,32.8898 152.5907,32.9038 152.5437,32.9148 C152.4967,32.9248 152.4367,32.9338 152.3637,32.9398 C152.2907,32.9448 152.1997,32.9468 152.0897,32.9468 C151.9787,32.9468 151.8897,32.9448 151.8187,32.9398 C151.7487,32.9338 151.6947,32.9248 151.6537,32.9148 C151.6147,32.9038 151.5877,32.8898 151.5737,32.8738 C151.5587,32.8558 151.5557,32.8358 151.5647,32.8148 L152.6177,28.8608 C152.6207,28.8398 152.6337,28.8198 152.6557,28.8018 C152.6797,28.7858 152.7137,28.7718 152.7587,28.7598 C152.8037,28.7508 152.8637,28.7418 152.9367,28.7358 C153.0117,28.7308 153.1027,28.7288 153.2087,28.7288 C153.3187,28.7288 153.4097,28.7308 153.4827,28.7358 C153.5547,28.7418 153.6097,28.7508 153.6507,28.7598 C153.6907,28.7718 153.7177,28.7858 153.7297,28.8018 C153.7427,28.8198 153.7477,28.8398 153.7417,28.8608 L153.3317,30.4018 L155.4047,30.4018 L155.8117,28.8608 C155.8177,28.8398 155.8327,28.8198 155.8557,28.8018 C155.8777,28.7858 155.9127,28.7718 155.9577,28.7598 C156.0037,28.7508 156.0637,28.7418 156.1377,28.7358 C156.2117,28.7308 156.3037,28.7288 156.4117,28.7288 C156.5197,28.7288 156.6107,28.7308 156.6827,28.7358 C156.7537,28.7418 156.8097,28.7508 156.8487,28.7598 C156.8897,28.7718 156.9167,28.7858 156.9297,28.8018 C156.9427,28.8198 156.9457,28.8398 156.9397,28.8608 L155.8897,32.8148 Z" id="Fill-17" fill="#0066AE"></path>
            </g>
        </g>
    </g>
</svg>