<?xml version="1.0" encoding="UTF-8"?>
<svg width="31px" height="31px" viewBox="0 0 31 31" version="1.1" xmlns="http://www.w3.org/2000/svg" xmlns:xlink="http://www.w3.org/1999/xlink">
    <!-- Generator: Sketch 48.1 (47250) - http://www.bohemiancoding.com/sketch -->
    <title>Page 1</title>
    <desc>Created with Sketch.</desc>
    <defs></defs>
    <g id="Page-1" stroke="none" stroke-width="1" fill="none" fill-rule="evenodd" fill-opacity="0.8">
        <g fill="#FFFFFF">
            <path d="M15.4994,13.0447 C16.9314,13.0397 18.0724,11.8887 18.0674,10.4537 C18.0624,9.0177 16.9184,7.8757 15.4854,7.8737 C14.0414,7.8727 12.8864,9.0357 12.8984,10.4847 C12.9084,11.9157 14.0624,13.0497 15.4994,13.0447" id="Fill-15"></path>
            <g id="Group-19" transform="translate(0.000000, 0.613100)">
                <path d="M15.4852,0 C23.7692,0 30.4852,6.716 30.4852,15 C30.4852,23.284 23.7692,30 15.4852,30 C7.2012,30 0.4852,23.284 0.4852,15 C0.4852,6.716 7.2012,0 15.4852,0 Z M15.5067,4.5615 C12.5907,4.5535 10.2217,6.9105 10.2057,9.8325 C10.1887,12.7255 12.5567,15.1185 15.4437,15.1285 C18.3607,15.1385 20.7437,12.7995 20.7587,9.9135 C20.7737,6.9595 18.4287,4.5695 15.5067,4.5615 Z M21.4244,17.2041 C21.8454,16.7711 21.8494,16.2271 21.5074,15.6691 C21.2084,15.1821 20.6884,14.9761 20.1304,15.1201 C19.8434,15.1931 19.5964,15.3391 19.3644,15.5161 C17.0274,17.0881 13.8284,17.0441 11.5004,15.4441 C11.3864,15.3661 11.2674,15.2911 11.1424,15.2321 C10.4964,14.9281 9.8744,15.0701 9.5044,15.6001 C9.0724,16.2191 9.1274,16.8211 9.6744,17.3461 C9.8154,17.4821 9.9754,17.6001 10.1304,17.7211 C11.3804,18.6981 12.8394,19.0971 14.4574,19.2661 C14.3434,19.3891 14.2704,19.4721 14.1914,19.5511 C13.0044,20.7411 11.8184,21.9321 10.6284,23.1201 C10.3824,23.3651 10.2064,23.6391 10.1884,23.9971 C10.1634,24.5271 10.4914,25.0551 11.0084,25.3051 C11.4944,25.5411 11.9934,25.4661 12.4114,25.0531 C13.3444,24.1331 14.2724,23.2091 15.1844,22.2691 C15.4134,22.0341 15.5374,21.9821 15.7964,22.2531 C16.6844,23.1831 17.6094,24.0791 18.5164,24.9921 C18.7524,25.2301 19.0194,25.4001 19.3614,25.4241 C19.9014,25.4611 20.4514,25.1161 20.6964,24.5911 C20.9214,24.1121 20.8364,23.6001 20.4284,23.1861 C19.2304,21.9751 18.0224,20.7731 16.8204,19.5641 C16.7374,19.4811 16.6744,19.4101 16.5404,19.2641 C17.4264,19.1581 18.3204,18.9981 19.1374,18.6821 C20.0004,18.3471 20.7784,17.8671 21.4244,17.2041 Z" id="Combined-Shape"></path>
            </g>
        </g>
    </g>
</svg>