<?xml version="1.0" encoding="UTF-8"?>
<svg width="30px" height="30px" viewBox="0 0 30 30" version="1.1" xmlns="http://www.w3.org/2000/svg" xmlns:xlink="http://www.w3.org/1999/xlink">
    <!-- Generator: Sketch 48.1 (47250) - http://www.bohemiancoding.com/sketch -->
    <title>odnok</title>
    <desc>Created with Sketch.</desc>
    <defs></defs>
    <g id="Page-1" stroke="none" stroke-width="1" fill="none" fill-rule="evenodd">
        <g id="odnok">
            <circle id="Oval" fill="#323232" cx="15" cy="15" r="15"></circle>
            <g id="Group" transform="translate(9.000000, 4.000000)" fill="#FFFFFF">
                <path d="M6.2895,0.5611 C9.2115,0.5701 11.5565,2.9591 11.5415,5.9141 C11.5265,8.7991 9.1435,11.1381 6.2265,11.1281 C3.3395,11.1191 0.9715,8.7251 0.9885,5.8331 C1.0045,2.9101 3.3735,0.5531 6.2895,0.5611 Z M6.2821,8.4322 C7.7141,8.4262 8.8551,7.2762 8.8501,5.8402 C8.8451,4.4052 7.7011,3.2622 6.2691,3.2602 C4.8241,3.2592 3.6701,4.4232 3.6811,5.8712 C3.6911,7.3022 4.8451,8.4372 6.2821,8.4322 Z" id="Combined-Shape"></path>
                <path d="M12.2072,13.2037 C11.5612,13.8677 10.7832,14.3477 9.9202,14.6827 C9.1032,14.9987 8.2092,15.1577 7.3232,15.2647 C7.4572,15.4097 7.5202,15.4807 7.6032,15.5647 C8.8052,16.7727 10.0132,17.9747 11.2112,19.1867 C11.6192,19.5997 11.7042,20.1117 11.4792,20.5917 C11.2342,21.1157 10.6842,21.4617 10.1442,21.4247 C9.8022,21.3997 9.5352,21.2307 9.2992,20.9917 C8.3922,20.0797 7.4672,19.1827 6.5792,18.2537 C6.3202,17.9817 6.1962,18.0337 5.9672,18.2687 C5.0552,19.2087 4.1272,20.1337 3.1942,21.0537 C2.7762,21.4667 2.2772,21.5417 1.7912,21.3057 C1.2742,21.0557 0.9462,20.5277 0.9712,19.9967 C0.9892,19.6397 1.1652,19.3647 1.4112,19.1197 C2.6012,17.9327 3.7872,16.7407 4.9742,15.5517 C5.0532,15.4727 5.1262,15.3887 5.2402,15.2657 C3.6222,15.0967 2.1632,14.6977 0.9132,13.7217 C0.7582,13.5997 0.5982,13.4827 0.4572,13.3467 C-0.0898,12.8207 -0.1448,12.2197 0.2872,11.5997 C0.6582,11.0697 1.2792,10.9287 1.9252,11.2327 C2.0502,11.2917 2.1692,11.3657 2.2832,11.4437 C4.6112,13.0437 7.8102,13.0877 10.1472,11.5157 C10.3792,11.3387 10.6262,11.1927 10.9132,11.1197 C11.4712,10.9757 11.9912,11.1817 12.2902,11.6697 C12.6322,12.2267 12.6282,12.7707 12.2072,13.2037" id="Fill-8"></path>
            </g>
        </g>
    </g>
</svg>