<svg xmlns="http://www.w3.org/2000/svg" viewBox="0 0 101.37 101.37"><defs><style>.cls-1{opacity:0.4;}</style></defs><title>our-partner</title><g id="Слой_2" data-name="Слой 2"><g id="Work"><g class="cls-1"><path d="M41.48,34.21c-.79,3.18-5.59,21.51-5.59,21.51H47.64s-5.22-18.33-6-21.51Z"/><path d="M0,0V101.37H101.37V0ZM53.47,78.33l-4.1-13.61H34.18L30.37,78.33H17.92L34.18,25.24H49.91L66.37,78.33Zm29.58,0h-12V39.83h12v38.5ZM77,35.09c-3.77,0-6.31-2.69-6.22-6C70.67,25.63,73.21,23,77.07,23a6,6,0,0,1,6.37,6.07C83.44,32.4,80.94,35.09,77,35.09Z"/></g></g></g></svg>