<?xml version="1.0" encoding="UTF-8"?>
<svg width="40px" height="40px" viewBox="0 0 40 40" version="1.1" xmlns="http://www.w3.org/2000/svg" xmlns:xlink="http://www.w3.org/1999/xlink">
    <!-- Generator: Sketch 48.1 (47250) - http://www.bohemiancoding.com/sketch -->
    <title>Fill 1</title>
    <desc>Created with Sketch.</desc>
    <defs></defs>
    <g id="Page-1" stroke="none" stroke-width="1" fill="none" fill-rule="evenodd">
        <g transform="translate(0.000000, -40.000000)" fill="#FFFFFF" id="Fill-1">
            <g transform="translate(0.000000, 40.000000)">
                <path d="M30.5613,29.1824 L28.9603,30.7844 C28.6743,31.0694 27.8373,31.2474 27.8103,31.2474 C22.7443,31.2914 17.8663,29.3024 14.2823,25.7174 C10.6883,22.1214 8.6963,17.2264 8.7503,12.1434 C8.7503,12.1414 8.9333,11.3284 9.2193,11.0454 L10.8203,9.4434 C11.4063,8.8544 12.5313,8.5894 13.3203,8.8524 L13.6573,8.9654 C14.4433,9.2284 15.2693,10.0984 15.4863,10.8984 L16.2913,13.8554 C16.5093,14.6584 16.2163,15.8014 15.6303,16.3874 L14.5613,17.4564 C15.6103,21.3424 18.6603,24.3924 22.5473,25.4454 L23.6153,24.3754 C24.2043,23.7864 25.3463,23.4944 26.1483,23.7104 L29.1043,24.5194 C29.9053,24.7394 30.7743,25.5594 31.0373,26.3454 L31.1503,26.6874 C31.4113,27.4734 31.1473,28.5994 30.5613,29.1824 M20.0003,0.0004 C8.9553,0.0004 0.0003,8.9554 0.0003,20.0004 C0.0003,31.0444 8.9553,40.0004 20.0003,40.0004 C31.0453,40.0004 39.9993,31.0444 39.9993,20.0004 C40.0003,8.9554 31.0453,0.0004 20.0003,0.0004"></path>
            </g>
        </g>
    </g>
</svg>