<svg xmlns="http://www.w3.org/2000/svg" viewBox="0 0 17.41 17.41"><defs><style>.cls-1{fill:#0066ae;}</style></defs><title>vk-contact</title><g id="Слой_2" data-name="Слой 2"><g id="Menu"><path class="cls-1" d="M8.71,0a8.71,8.71,0,1,0,8.7,8.71A8.71,8.71,0,0,0,8.71,0ZM13,10.53a4.89,4.89,0,0,1,1.13,1.32c.38.62-.42.67-.42.67l-1.52,0a1.05,1.05,0,0,1-.76-.23c-.57-.39-1.11-1.41-1.53-1.28s-.41,1.06-.41,1.06a.51.51,0,0,1-.1.3.56.56,0,0,1-.31.13H8.38a3.94,3.94,0,0,1-2.84-1.29,18.62,18.62,0,0,1-2.73-4.5s-.07-.19,0-.29a.61.61,0,0,1,.34-.11H4.79a.65.65,0,0,1,.26.1.63.63,0,0,1,.15.2,11.09,11.09,0,0,0,.61,1.27C6.49,9.07,6.81,9.32,7,9.2s.24-1.67.24-1.67a1.75,1.75,0,0,0-.17-.78A.78.78,0,0,0,6.6,6.5c-.09,0,.06-.23.25-.32A3.55,3.55,0,0,1,8.28,6a3.35,3.35,0,0,1,.8.08c.57.14.37.66.37,1.92,0,.4-.07,1,.22,1.16.13.08.43,0,1.2-1.29a9.64,9.64,0,0,0,.63-1.34.43.43,0,0,1,.16-.18.36.36,0,0,1,.22,0H13.6s.51-.06.6.17-.2.82-.9,1.75C12.15,9.79,12,9.64,13,10.53Z"/></g></g></svg>