<?xml version="1.0" encoding="UTF-8"?>
<svg width="30px" height="30px" viewBox="0 0 30 30" version="1.1" xmlns="http://www.w3.org/2000/svg" xmlns:xlink="http://www.w3.org/1999/xlink">
    <!-- Generator: Sketch 48.1 (47250) - http://www.bohemiancoding.com/sketch -->
    <title>Group</title>
    <desc>Created with Sketch.</desc>
    <defs></defs>
    <g id="Page-1" stroke="none" stroke-width="1" fill="none" fill-rule="evenodd">
        <g id="Group">
            <circle id="Oval" fill="#0066AE" cx="15" cy="15" r="15"></circle>
            <path d="M22.565,18.225 C24.141,19.688 24.467,20.4 24.521,20.488 C25.173,21.57 23.797,21.655 23.797,21.655 L21.167,21.691 C21.167,21.691 20.601,21.804 19.858,21.292 C18.874,20.617 17.946,18.861 17.223,19.09 C16.49,19.323 16.513,20.903 16.513,20.903 C16.513,20.903 16.518,21.24 16.351,21.42 C16.169,21.616 15.814,21.655 15.814,21.655 L14.637,21.655 C14.637,21.655 12.039,21.811 9.751,19.43 C7.257,16.832 5.053,11.677 5.053,11.677 C5.053,11.677 4.926,11.339 5.064,11.176 C5.22,10.992 5.642,10.98 5.642,10.98 L8.456,10.962 C8.456,10.962 8.721,11.006 8.911,11.145 C9.068,11.261 9.155,11.475 9.155,11.475 C9.155,11.475 9.61,12.626 10.213,13.666 C11.388,15.698 11.936,16.142 12.335,15.925 C12.917,15.607 12.742,13.053 12.742,13.053 C12.742,13.053 12.753,12.125 12.45,11.713 C12.215,11.392 11.771,11.299 11.575,11.273 C11.417,11.252 11.677,10.884 12.014,10.719 C12.52,10.471 13.415,10.457 14.471,10.468 C15.295,10.476 15.532,10.528 15.854,10.605 C16.824,10.84 16.495,11.745 16.495,13.914 C16.495,14.609 16.369,15.587 16.871,15.911 C17.086,16.05 17.614,15.932 18.932,13.693 C19.558,12.631 20.026,11.384 20.026,11.384 C20.026,11.384 20.129,11.161 20.288,11.065 C20.451,10.968 20.67,10.998 20.67,10.998 L23.632,10.98 C23.632,10.98 24.522,10.873 24.666,11.275 C24.817,11.697 24.333,12.682 23.123,14.294 C21.137,16.942 20.916,16.694 22.565,18.225" id="Fill-2" fill="#FFFFFF"></path>
        </g>
    </g>
</svg>