<?xml version="1.0" encoding="UTF-8"?>
<svg width="30px" height="30px" viewBox="0 0 30 30" version="1.1" xmlns="http://www.w3.org/2000/svg" xmlns:xlink="http://www.w3.org/1999/xlink">
    <!-- Generator: Sketch 48.1 (47250) - http://www.bohemiancoding.com/sketch -->
    <title>Combined Shape</title>
    <desc>Created with Sketch.</desc>
    <defs></defs>
    <g id="Page-1" stroke="none" stroke-width="1" fill="none" fill-rule="evenodd" fill-opacity="0.8">
        <g fill="#FFFFFF" id="Combined-Shape">
            <path d="M15.0001,-0.0002 C23.2841,-0.0002 30.0001,6.7158 30.0001,14.9998 C30.0001,23.2848 23.2841,29.9998 15.0001,29.9998 C6.7161,29.9998 0.0001,23.2848 0.0001,14.9998 C0.0001,6.7158 6.7161,-0.0002 15.0001,-0.0002 Z M22.5651,16.7597 C20.9161,15.2287 21.1371,15.4767 23.1231,12.8287 C24.3331,11.2167 24.8171,10.2317 24.6661,9.8097 C24.5221,9.4077 23.6321,9.5147 23.6321,9.5147 L20.6701,9.5327 C20.6701,9.5327 20.4511,9.5027 20.2881,9.5997 C20.1291,9.6957 20.0261,9.9177 20.0261,9.9177 C20.0261,9.9177 19.5581,11.1657 18.9321,12.2277 C17.6141,14.4667 17.0861,14.5847 16.8711,14.4457 C16.3691,14.1217 16.4951,13.1437 16.4951,12.4487 C16.4951,10.2797 16.8241,9.3747 15.8541,9.1397 C15.5321,9.0627 15.2951,9.0107 14.4711,9.0027 C13.4151,8.9917 12.5201,9.0057 12.0141,9.2537 C11.6771,9.4187 11.4171,9.7867 11.5751,9.8077 C11.7711,9.8337 12.2151,9.9267 12.4501,10.2477 C12.7531,10.6597 12.7421,11.5877 12.7421,11.5877 C12.7421,11.5877 12.9171,14.1417 12.3351,14.4597 C11.9361,14.6767 11.3881,14.2327 10.2131,12.2007 C9.6101,11.1607 9.1551,10.0097 9.1551,10.0097 C9.1551,10.0097 9.0681,9.7957 8.9111,9.6797 C8.7211,9.5407 8.4561,9.4967 8.4561,9.4967 L5.6421,9.5147 C5.6421,9.5147 5.2201,9.5267 5.0641,9.7107 C4.9261,9.8737 5.0531,10.2117 5.0531,10.2117 C5.0531,10.2117 7.2571,15.3667 9.7511,17.9647 C12.0391,20.3457 14.6371,20.1897 14.6371,20.1897 L15.8141,20.1897 C15.8141,20.1897 16.1691,20.1507 16.3511,19.9547 C16.5181,19.7747 16.5131,19.4377 16.5131,19.4377 C16.5131,19.4377 16.4901,17.8577 17.2231,17.6247 C17.9461,17.3957 18.8741,19.1517 19.8581,19.8267 C20.6011,20.3377 21.1671,20.2257 21.1671,20.2257 L23.7971,20.1897 C23.7971,20.1897 25.1731,20.1047 24.5211,19.0227 C24.4671,18.9337 24.1411,18.2227 22.5651,16.7597 Z"></path>
        </g>
    </g>
</svg>