<?xml version="1.0" encoding="UTF-8"?>
<svg width="30px" height="30px" viewBox="0 0 30 30" version="1.1" xmlns="http://www.w3.org/2000/svg" xmlns:xlink="http://www.w3.org/1999/xlink">
    <!-- Generator: Sketch 48.1 (47250) - http://www.bohemiancoding.com/sketch -->
    <title>vk</title>
    <desc>Created with Sketch.</desc>
    <defs></defs>
    <g id="Page-1" stroke="none" stroke-width="1" fill="none" fill-rule="evenodd">
        <g id="vk">
            <circle id="Oval" fill="#0066AE" cx="15" cy="15" r="15"></circle>
            <path d="M22.5653211,16.7595766 C24.1413211,18.2225766 24.4673211,18.9345766 24.5213211,19.0235766 C25.1733211,20.1045766 23.7973211,20.1895766 23.7973211,20.1895766 L21.1673211,20.2265766 C21.1673211,20.2265766 20.6013211,20.3375766 19.8583211,19.8265766 C18.8743211,19.1525766 17.9463211,17.3965766 17.2233211,17.6245766 C16.4903211,17.8585766 16.5133211,19.4375766 16.5133211,19.4375766 C16.5133211,19.4375766 16.5183211,19.7755766 16.3513211,19.9545766 C16.1693211,20.1505766 15.8143211,20.1895766 15.8143211,20.1895766 L14.6373211,20.1895766 C14.6373211,20.1895766 12.0393211,20.3455766 9.75132109,17.9645766 C7.25732109,15.3665766 5.05332109,10.2115766 5.05332109,10.2115766 C5.05332109,10.2115766 4.92632109,9.87357663 5.06432109,9.71057663 C5.22032109,9.52757663 5.64232109,9.51557663 5.64232109,9.51557663 L8.45632109,9.49657663 C8.45632109,9.49657663 8.72132109,9.54057663 8.91132109,9.68057663 C9.06832109,9.79557663 9.15532109,10.0105766 9.15532109,10.0105766 C9.15532109,10.0105766 9.61032109,11.1605766 10.2133211,12.2005766 C11.3883211,14.2335766 11.9363211,14.6775766 12.3353211,14.4595766 C12.9173211,14.1425766 12.7423211,11.5875766 12.7423211,11.5875766 C12.7423211,11.5875766 12.7533211,10.6595766 12.4503211,10.2475766 C12.2153211,9.92757663 11.7713211,9.83357663 11.5753211,9.80757663 C11.4173211,9.78657663 11.6773211,9.41857663 12.0143211,9.25357663 C12.5203211,9.00557663 13.4153211,8.99157663 14.4713211,9.00257663 C15.2953211,9.01057663 15.5323211,9.06257663 15.8543211,9.14057663 C16.8243211,9.37457663 16.4953211,10.2795766 16.4953211,12.4485766 C16.4953211,13.1445766 16.3693211,14.1215766 16.8713211,14.4465766 C17.0863211,14.5845766 17.6143211,14.4665766 18.9323211,12.2275766 C19.5583211,11.1655766 20.0263211,9.91757663 20.0263211,9.91757663 C20.0263211,9.91757663 20.1293211,9.69657663 20.2883211,9.60057663 C20.4513211,9.50257663 20.6703211,9.53257663 20.6703211,9.53257663 L23.6323211,9.51457663 C23.6323211,9.51457663 24.5223211,9.40757663 24.6663211,9.81057663 C24.8173211,10.2315766 24.3333211,11.2165766 23.1233211,12.8285766 C21.1373211,15.4765766 20.9163211,15.2295766 22.5653211,16.7595766" id="Fill-1" fill="#FFFFFF"></path>
        </g>
    </g>
</svg>