<svg xmlns="http://www.w3.org/2000/svg" viewBox="0 0 56.63 56.63"><defs><style>.cls-1{fill:#0066ae;}.cls-2{fill:#fff;}</style></defs><title>Ресурс 2</title><g id="Слой_2" data-name="Слой 2"><g id="Work"><circle class="cls-1" cx="28.32" cy="28.32" r="28.32"/><path class="cls-2" d="M32.27,14.34a4,4,0,1,0-4,3.95A4,4,0,0,0,32.27,14.34Z"/><path class="cls-2" d="M32.65,20.21h0l-1.13-.34a.34.34,0,0,0-.43.21l-2.37,6.51a.43.43,0,0,1-.81,0l-2.37-6.51a.35.35,0,0,0-.33-.23L24,20.2a3.51,3.51,0,0,0-2.41,3.33v6.88a.33.33,0,0,0,.06.19l2.47,3.77v9.52a.35.35,0,0,0,.35.35h7.71a.35.35,0,0,0,.35-.35V34.37L35,30.6a.33.33,0,0,0,.06-.19v-6.9a3.47,3.47,0,0,0-2.4-3.3Z"/><path class="cls-2" d="M29.24,20.07a.51.51,0,0,0-.38-.16H27.78a.5.5,0,0,0-.46.75l.58.87-.27,2.28.53,1.42a.17.17,0,0,0,.31,0L29,23.81l-.27-2.28.58-.87A.5.5,0,0,0,29.24,20.07Z"/></g></g></svg>